<?xml version="1.0" ?><!DOCTYPE svg  PUBLIC '-//W3C//DTD SVG 1.1//EN'  'http://www.w3.org/Graphics/SVG/1.1/DTD/svg11.dtd'><svg height="512px" style="enable-background:new 0 0 512 512;" version="1.1" viewBox="0 0 512 512" width="512px" xml:space="preserve" xmlns="http://www.w3.org/2000/svg" xmlns:xlink="http://www.w3.org/1999/xlink"><g id="_x36_32_x2C__coins_x2C__finance_x2C__gold_x2C__income_x2C__savings"><g><path d="M359.863,425.137c2.622,0.3,5.338,0.544,8.079,0.707    c4.373,0.299,8.907,0.462,13.579,0.462c21.319,0,40.548-3.232,54.368-8.419c12.82-4.807,20.752-11.054,20.752-17.599    c0-1.847-0.667-3.72-1.944-5.512c-1.169-1.685-2.836-3.315-4.927-4.889c-3.313,1.982-7.17,3.801-11.463,5.404    c-14.596,5.485-34.681,8.879-56.786,8.879c-6.788,0-13.498-0.353-19.959-0.949c-2.148-0.218-4.24-0.462-6.328-0.733    c0.691,0.788,1.33,1.603,1.898,2.416c2.783,3.992,4.278,8.202,4.278,12.603C361.411,420.113,360.881,422.666,359.863,425.137     M359.116,344.805c-2.011,3.965-5.296,7.713-9.693,11.216c3.177,2.499,5.756,5.133,7.71,7.903    c0.682,0.978,1.277,1.955,1.794,2.961c3.341,0.381,6.734,0.679,10.171,0.868c3.979,0.245,8.135,0.381,12.424,0.381    c21.319,0,40.548-3.204,54.368-8.419c4.552-1.684,8.476-3.586,11.652-5.595c0.298-0.271,0.624-0.489,0.979-0.624    c5.188-3.505,8.121-7.388,8.121-11.38c0-1.847-0.681-3.72-1.944-5.514c-1.169-1.683-2.836-3.313-4.927-4.887    c-3.313,1.981-7.17,3.801-11.463,5.404c-14.596,5.485-34.681,8.88-56.786,8.88c-4.25,0-8.5-0.136-12.684-0.38    C365.5,345.402,362.268,345.131,359.116,344.805z M349.735,314.769l-0.313,0.271c3.177,2.499,5.756,5.133,7.71,7.903    c2.783,3.965,4.278,8.202,4.278,12.602c0,0.842-0.052,1.683-0.161,2.498c2.632,0.272,5.307,0.488,7.998,0.651    c3.938,0.218,8.037,0.353,12.273,0.353c21.319,0,40.548-3.23,54.368-8.418c4.552-1.684,8.476-3.584,11.652-5.596    c0.298-0.27,0.624-0.487,0.979-0.65c5.188-3.504,8.121-7.359,8.121-11.352c0-1.82-0.652-3.668-1.888-5.459    c-1.127-1.631-2.73-3.204-4.728-4.752c-3.38,2.035-7.304,3.91-11.719,5.566c-14.596,5.459-34.681,8.854-56.786,8.854    c-5.837,0-11.543-0.245-17.053-0.679C359.39,316.154,354.459,315.529,349.735,314.769z M343.787,278.459    c-4.848,3.015-10.592,5.758-17.085,8.201c-20.422,7.658-48.543,12.412-79.528,12.412c-30.975,0-59.111-4.754-79.519-12.412    c-6.503-2.443-12.248-5.187-17.084-8.201c-3.257,2.361-5.836,4.861-7.644,7.441l-0.108,0.162    c-1.913,2.744-2.934,5.596-2.934,8.502c0,0.434,0.028,0.895,0.07,1.33l0.014,0.08l0.011,0.028    c0.639,5.622,4.998,11.025,12.238,15.888c0.256,0.109,0.501,0.244,0.719,0.407c4.373,2.851,9.668,5.485,15.779,7.875l0.488,0.189    l0.109,0.028l0.625,0.244l0.123,0.055l0.501,0.162l0.436,0.164l0.189,0.08l0.639,0.218l0.095,0.055l0.544,0.189l0.407,0.137    l0.228,0.081l0.653,0.217l0.081,0.028l0.572,0.189l1.316,0.434l0.067,0.028l0.614,0.189l2.021,0.652l0.369,0.109l0.323,0.08    c2.295,0.706,4.671,1.358,7.117,1.955l0.748,0.191l2.987,0.733l0.61,0.136l0.151,0.025l0.758,0.164l0.218,0.054l0.558,0.138    l0.583,0.108l0.175,0.054l0.762,0.162l0.761,0.137l0.597,0.135l0.162,0.028l0.79,0.161l0.218,0.055l0.544,0.109l0.625,0.108    l0.162,0.028l0.786,0.135l0.79,0.163l0.625,0.108l0.162,0.027l0.79,0.137l0.242,0.054l0.558,0.108l0.653,0.107h0.147l1.618,0.272    l0.663,0.108l0.137,0.028l0.814,0.136l0.271,0.027l0.558,0.081l0.681,0.108l0.133,0.026l0.828,0.108l0.274,0.055l0.554,0.082    l0.695,0.082l0.134,0.027l0.842,0.107l0.284,0.027l0.558,0.081l0.706,0.083l0.123,0.025l0.856,0.109l0.298,0.027l0.544,0.081    l0.734,0.081h0.108l0.867,0.109l0.298,0.027l0.544,0.055l0.761,0.08l0.109,0.028l0.853,0.081l0.326,0.027l0.544,0.055l0.776,0.081    h0.081l1.221,0.108l0.53,0.055l0.786,0.081l0.965,0.082l0.354,0.026l0.53,0.028l0.8,0.081h0.081l0.895,0.054l0.369,0.028    l1.344,0.107h0.066l1.264,0.082l0.53,0.026l0.828,0.054h0.067l0.913,0.055l0.379,0.028l0.516,0.026l0.856,0.028h0.053l0.913,0.054    l0.407,0.027h0.502l0.867,0.054h0.042l0.923,0.028h0.421l1.372,0.055h0.053l0.912,0.025h0.432l1.4,0.027h0.014l2.783,0.055h0.014    h2.812h2.811h0.01l2.787-0.055h0.014l1.396-0.027h0.436l0.923-0.025h0.042l1.383-0.055h0.407l0.923-0.028h0.042l0.87-0.054h0.502    l0.407-0.027l0.923-0.054h0.042l0.854-0.028l0.516-0.026l0.396-0.028l0.895-0.055h0.067l0.842-0.054l0.516-0.026l1.264-0.082    h0.081l1.344-0.107l0.354-0.028l0.896-0.054h0.08l0.804-0.081l0.53-0.028l0.351-0.026l0.965-0.082l0.786-0.081l0.53-0.055    l1.225-0.108h0.095l0.772-0.081l0.53-0.055l0.326-0.027l0.856-0.081l0.108-0.028l0.758-0.08l0.544-0.055l0.313-0.027l0.856-0.109    h0.109l0.733-0.081l0.54-0.081l0.313-0.027l0.842-0.109l0.123-0.025l0.72-0.083l0.544-0.081l0.284-0.027l0.842-0.107l0.138-0.027    l0.691-0.082l0.558-0.082l0.271-0.055l0.828-0.108l0.137-0.026l0.691-0.108l0.544-0.081l0.271-0.027l0.817-0.136l0.134-0.028    l0.681-0.108l0.8-0.136l0.801-0.137h0.164l0.649-0.107l0.544-0.108l0.246-0.054l0.786-0.137l0.165-0.027l0.635-0.108l0.775-0.163    l0.786-0.135l0.165-0.028l0.625-0.108l0.544-0.109l0.229-0.055l0.775-0.161l0.161-0.028l0.601-0.135l0.555-0.109l0.217-0.027    l0.762-0.162l0.176-0.054l0.572-0.108l0.554-0.138l0.232-0.054l0.761-0.164l0.134-0.025l0.625-0.136l2.717-0.653l0.298-0.08    l0.747-0.191h0.043l0.691-0.189l0.379-0.08l0.354-0.109l0.721-0.191h0.014c1.698-0.434,3.355-0.923,4.969-1.41l0.232-0.055    l0.459-0.137l1.358-0.434l0.189-0.055l0.491-0.163l0.502-0.163l0.176-0.055l0.667-0.217l0.147-0.055l0.516-0.164l0.652-0.215    l0.653-0.246c8.013-2.77,14.855-6.002,20.246-9.561c0.175-0.106,0.341-0.215,0.517-0.298c1.424-0.949,2.754-1.929,3.951-2.933    c0.27-0.326,0.597-0.624,0.961-0.842c4.795-4.236,7.416-8.826,7.416-13.523c0-2.906-1.018-5.758-2.934-8.502    C349.707,283.429,347.086,280.875,343.787,278.459z M360.664,259.34c-1.506,5.35-5.282,10.373-10.943,14.938    c3.096,2.471,5.623,5.104,7.508,7.821c2.73,3.938,4.183,8.093,4.183,12.466c0,4.941-1.916,9.695-5.472,14.094    c2.932,0.407,5.974,0.705,9.069,0.978c5.323,0.435,10.837,0.653,16.513,0.653c21.319,0,40.534-3.207,54.368-8.394    c4.686-1.765,8.718-3.72,11.95-5.784c0.26-0.245,0.558-0.435,0.87-0.598c5.078-3.448,7.932-7.277,7.932-11.217    c0-6.543-7.932-12.818-20.752-17.625c-13.82-5.187-33.049-8.391-54.368-8.391c-4.1,0-8.065,0.109-11.842,0.324    C366.641,258.797,363.626,259.041,360.664,259.34z M133.543,299.316c-13.522-2.391-25.065-6.193-33.294-10.891l-0.814-0.461    c-2.092,1.547-3.748,3.178-4.917,4.834c-4.914,7.033,0.41,12.98,6.436,17.026c0.193,0.083,0.383,0.218,0.544,0.354    c0.937,0.597,1.944,1.195,3.015,1.766c8.135,4.453,19.703,8.01,33.323,10.156l0.204-0.244c1.835-2.39,4.141-4.671,6.886-6.844    C138.923,310.26,134.958,304.965,133.543,299.316z M141.829,271.833c-15.863-2.011-29.589-5.894-39.38-10.972    c-1.141-0.57-2.225-1.195-3.26-1.82c-1.993,1.521-3.583,3.123-4.71,4.754c-1.235,1.791-1.902,3.611-1.902,5.457    c0,3.992,3.057,7.903,8.419,11.488c0.165,0.08,0.312,0.189,0.477,0.326c0.691,0.434,1.439,0.895,2.197,1.33    c7.251,4.127,17.411,7.523,29.414,9.805c0.435-3.503,1.807-6.898,4.032-10.103l0.151-0.191c1.874-2.66,4.345-5.214,7.359-7.63    C143.647,273.49,142.71,272.674,141.829,271.833z M145.303,265.667c0.369,0.245,0.681,0.57,0.923,0.925    c1.618,1.574,3.53,3.096,5.688,4.563c0.313,0.163,0.614,0.353,0.871,0.57c4.685,3.068,10.511,5.92,17.288,8.445    c19.646,7.359,46.915,11.949,77.101,11.949c30.185,0,57.464-4.59,77.114-11.949c6.763-2.525,12.585-5.377,17.256-8.42    c0.274-0.243,0.572-0.433,0.898-0.596c6.882-4.672,11.094-9.858,11.894-15.264l0,0l0,0l0.014-0.191l0.015-0.08l0.015-0.08    c0.053-0.49,0.08-1.006,0.08-1.496c0-9.857-11.529-19.146-30.171-26.124c-19.65-7.36-46.93-11.95-77.114-11.95    c-30.186,0-57.454,4.59-77.101,11.95c-18.646,6.979-30.188,16.267-30.188,26.124C139.885,258.063,141.787,261.975,145.303,265.667    z M186.312,215.779c-8.339-0.787-16.716-1.277-18.604-1.277c-21.317,0-40.545,3.206-54.369,8.393    c-12.817,4.807-20.762,11.054-20.762,17.599c0,3.992,3.042,7.93,8.377,11.487l0.084,0.054h0.024l0.042,0.055    c1.373,0.896,2.864,1.765,4.521,2.607c7.605,3.938,17.898,7.115,29.901,9.179c-1.695-3.149-2.594-6.436-2.594-9.832    c0-13.063,13.27-24.576,34.723-32.615C173.302,219.311,179.563,217.408,186.312,215.779z M324.288,96.014    c-6.327-2.363-13.459-4.455-21.212-6.191v18.005c0,2.743-1.127,5.241-2.92,7.033c-1.846,1.848-4.358,2.96-7.089,2.96    c-2.741,0-5.24-1.112-7.058-2.932c-1.821-1.82-2.962-4.318-2.962-7.062V86.346c-8.827-1.169-18.211-1.9-27.946-2.146v11.896    c0,2.743-1.112,5.241-2.931,7.062c-1.849,1.819-4.348,2.96-7.075,2.96c-2.745,0-5.229-1.141-7.047-2.935    c-1.835-1.846-2.962-4.344-2.962-7.087V84.336c-9.584,0.379-18.765,1.25-27.43,2.498v23.328c0,2.743-1.126,5.242-2.931,7.062    c-1.849,1.819-4.345,2.96-7.089,2.96c-2.745,0-5.229-1.141-7.033-2.934c-1.846-1.846-2.962-4.345-2.962-7.088V90.69    c-6.356,1.548-12.248,3.341-17.569,5.323c-18.646,7.008-30.188,16.268-30.188,26.153c0,4.479,2.404,8.881,6.791,12.954    c0.256,0.162,0.501,0.381,0.719,0.624l0.151,0.163c5.226,4.589,12.939,8.771,22.527,12.383    c19.646,7.359,46.915,11.922,77.101,11.922c30.185,0,57.464-4.563,77.114-11.922c9.584-3.611,17.284-7.794,22.527-12.383    l0.134-0.163c0.217-0.243,0.463-0.462,0.732-0.624c4.373-4.073,6.777-8.475,6.777-12.954    C354.459,112.281,342.93,103.021,324.288,96.014z M349.314,142.724c-5.787,4.536-13.445,8.61-22.612,12.06    c-20.422,7.658-48.543,12.383-79.528,12.383c-30.975,0-59.111-4.725-79.519-12.383c-9.167-3.449-16.838-7.523-22.622-12.06    c-1.415,1.55-2.58,3.124-3.422,4.726c-1.126,2.12-1.727,4.318-1.727,6.52c0,9.857,11.542,19.117,30.188,26.124    c19.646,7.361,46.915,11.924,77.101,11.924c30.185,0,57.464-4.563,77.114-11.924c18.642-7.007,30.171-16.267,30.171-26.124    c0-2.201-0.582-4.399-1.713-6.52C351.894,145.848,350.738,144.273,349.314,142.724z M153.263,347.168    c-7.278-7.279-17.33-11.759-28.438-11.759c-9.205,0-17.705,3.096-24.468,8.282l-0.067,0.055l-0.067,0.055l-0.07,0.055    l-0.067,0.055h-0.014c-1.292,1.003-2.513,2.09-3.681,3.258c-7.275,7.279-11.757,17.326-11.757,28.434s4.481,21.156,11.757,28.435    c7.278,7.251,17.326,11.759,28.434,11.759c11.097,0,21.159-4.508,28.424-11.785c7.278-7.252,11.771-17.328,11.771-28.408    C165.02,364.494,160.527,354.447,153.263,347.168z M160.647,406.263c-0.8,0.923-1.628,1.819-2.485,2.688    c-5.008,4.997-11.146,8.881-17.99,11.244c1.874,8.881,13.034,17.136,30.09,23.52c19.636,7.331,46.82,11.867,76.911,11.867    c30.185,0,57.45-4.563,77.1-11.95c12.846-4.806,22.324-10.7,26.967-17.137c0.162-0.353,0.38-0.651,0.625-0.923    c1.699-2.607,2.594-5.296,2.594-8.065c0-2.934-1.046-5.812-3-8.61c-1.889-2.66-4.605-5.268-8.041-7.738    c-4.766,2.933-10.388,5.62-16.716,7.984c-20.422,7.657-48.558,12.411-79.528,12.411c-17.625,0-34.369-1.55-49.291-4.292    C183.529,414.628,170.832,410.854,160.647,406.263z M171.593,369.572c0.256,1.983,0.379,3.992,0.379,6.029    c0,9.153-2.608,17.707-7.128,24.932c9.465,4.102,21.113,7.495,34.288,9.913c14.445,2.66,30.754,4.155,48.042,4.155    c30.185,0,57.45-4.591,77.1-11.95c6.574-2.472,12.263-5.215,16.863-8.147c0.299-0.298,0.652-0.516,1.021-0.679    c7.848-5.27,12.301-11.162,12.301-17.3c0-1.656-0.326-3.313-0.979-4.916l-0.039-0.08v-0.028l-0.028-0.054l-0.028-0.081l0,0    l-0.024-0.083l0,0c-0.491-1.141-1.13-2.253-1.901-3.367c-1.889-2.662-4.591-5.268-8.013-7.74    c-2.239,1.387-4.685,2.688-7.307,3.966l-0.284,0.136l-0.545,0.271l-0.066,0.026l-0.487,0.218l-0.407,0.191l-0.15,0.08    l-0.555,0.244l-0.204,0.082l-0.368,0.164l-0.559,0.244l-0.01,0.025l-0.586,0.246l-0.341,0.135l-0.242,0.109l-0.597,0.244    l-0.109,0.054l-0.477,0.191l-0.488,0.189l-0.719,0.298l-0.26,0.109l-0.337,0.135l-0.614,0.246h-0.039l-0.572,0.217l-0.421,0.162    l-0.203,0.082l-0.636,0.218l-0.123,0.055l-0.502,0.189l-0.477,0.163l-0.162,0.055l-0.813,0.298l-0.464,0.163l-0.543,0.189    l-0.109,0.028l-0.649,0.216l-0.245,0.082l-1.018,0.327l-0.07,0.026c-3.977,1.304-8.202,2.498-12.627,3.559l-0.313,0.08    c-1.373,0.327-2.77,0.651-4.198,0.951l-1.558,0.354h-0.07l-2.31,0.487h-0.081l-0.705,0.137l-0.502,0.108    c-2.242,0.434-4.534,0.843-6.857,1.223l-0.572,0.082l-0.27,0.055l-0.829,0.106l-0.175,0.028l-2.365,0.353l-0.19,0.028    c-1.709,0.244-3.436,0.487-5.187,0.705l-0.649,0.081l-0.667,0.054l-3.72,0.409l-0.273,0.026l-0.611,0.08l-0.733,0.055    l-0.161,0.028l-0.895,0.081l-0.288,0.027l-1.358,0.136h-0.147l-0.895,0.083l-0.326,0.025l-0.587,0.055l-0.771,0.055h-0.137    l-0.909,0.08l-0.326,0.028l-0.583,0.026l-0.79,0.055l-0.137,0.027l-0.923,0.055h-0.337l-0.572,0.055l-0.828,0.026l-0.095,0.028    l-0.923,0.055h-0.368l-0.568,0.025l-0.843,0.055h-0.081l-0.923,0.055h-0.393l-0.544,0.025l-0.871,0.055h-0.066l-0.951,0.028    h-0.407l-0.515,0.026l-0.898,0.028h-0.053l-0.951,0.026h-0.435l-0.516,0.027h-0.895h-0.042l-0.961,0.027h-0.435l-0.516,0.027    h-0.923h-0.028h-0.951h-0.474l-0.491,0.026h-0.961h-0.734l-0.733-0.026h-0.733h-0.706h-0.733l-0.733-0.027h-0.719l-0.72-0.027    h-0.733l-0.706-0.027h-0.733l-0.719-0.026l-0.723-0.028l-0.706-0.026l0,0l-0.719-0.028l-0.719-0.025l-0.706-0.029l-0.706-0.025    l-0.719-0.026l-0.706-0.028l-0.709-0.055l-0.705-0.025h-0.014l-0.691-0.029l0,0l-0.706-0.054l-0.695-0.026l-0.706-0.055    l-0.705-0.055l-0.706-0.027l-0.695-0.055l-0.691-0.055l-0.691-0.055l-0.695-0.052l-0.691-0.055l-0.691-0.054l-0.681-0.055    l-0.691-0.055l-0.691-0.082l-0.681-0.055l-0.677-0.055l-0.681-0.08l-0.677-0.055l-0.681-0.081l-0.677-0.054l0,0l-0.667-0.083    h-0.011l-0.667-0.081l-0.667-0.055l-0.664-0.082h-0.014l-0.653-0.08l0,0l-0.677-0.083l0,0l-0.653-0.081l-0.667-0.08l-0.663-0.083    l0,0l-0.653-0.081l-0.653-0.082l-0.014-0.026l-0.649-0.082l0,0l-0.652-0.081l0,0l-0.653-0.08l0,0l-0.649-0.109l0,0l-0.639-0.082    l0,0l-0.653-0.109l0,0l-0.653-0.08v-0.028l-0.639-0.081l0,0l-0.635-0.109l0,0l-0.639-0.08v-0.027l-0.667-0.082v-0.027    l-0.652-0.081v-0.028l-0.664-0.08v-0.028l-0.653-0.106l0,0l-0.653-0.109l0,0l-0.649-0.109l0,0l-0.653-0.108l0,0l-0.639-0.137l0,0    l-0.653-0.106l0,0l-0.635-0.137l0,0L195.9,375.9l0,0l-0.653-0.135l0,0l-0.625-0.109l0,0l-0.639-0.135l0,0l-0.625-0.137l0,0    l-0.639-0.109v-0.025l-0.625-0.109l0,0l-0.625-0.135l0,0l-0.61-0.137l0,0l-0.625-0.136l0,0l-0.61-0.137l0,0l-0.611-0.136l0,0    l-0.611-0.135v-0.027l-0.61-0.136l0,0l-0.611-0.137l0,0l-1.793-0.434l0,0l-1.793-0.435v-0.027l-1.737-0.435v-0.026l-1.737-0.463    l0,0l-0.572-0.162l0,0l-0.568-0.163l0,0l-1.126-0.326l0,0C175.692,370.931,173.614,370.252,171.593,369.572z M140.66,331.172    c6.64,2.363,12.603,6.192,17.488,11.081l0.084,0.081c5.296,5.324,9.342,11.895,11.624,19.254l2.281,0.814l0,0l0.989,0.355l0,0    l0.502,0.189l0,0c1.358,0.461,2.73,0.896,4.141,1.33l0,0c1.046,0.326,2.134,0.652,3.218,0.951v0.025    c1.822,0.516,3.682,1.006,5.584,1.495l0,0l2.306,0.542v0.028l1.154,0.244v0.026l1.197,0.246l0,0l0.583,0.135l0,0l0.597,0.135l0,0    c1.183,0.272,2.39,0.516,3.615,0.762l0,0l0.611,0.109l0,0l0.625,0.135l0,0l0.611,0.108l0,0l0.611,0.108l0,0l0.625,0.136l0,0    l0.625,0.108l0,0l1.874,0.326l0,0l0.639,0.109l0,0l0.635,0.109l0,0l0.625,0.108l0,0l0.639,0.081v0.027l0.625,0.081l0,0    l0.611,0.108l0.625,0.081l0,0l0.625,0.108l0,0l0.625,0.083l0,0l0.625,0.081l0,0l0.625,0.108l0,0l0.639,0.081h0.014l0.625,0.082    l0.625,0.08l0.653,0.083v0.026l0.625,0.082l0,0l0.649,0.081l0.639,0.055l0.639,0.081h0.014l0.639,0.082l0,0l0.653,0.08    l0.649,0.083l0,0l0.653,0.055l0.653,0.081l0.649,0.082l0.653,0.053l0.667,0.082l0.663,0.055l0,0l0.653,0.055l0.681,0.055v0.025    l0.649,0.055l0.681,0.055l0,0l0.663,0.055l0,0l0.667,0.054l0,0l0.677,0.055l0.681,0.054l0.664,0.055h0.014l0.667,0.055    l0.677,0.055l0.681,0.025l0.691,0.055l0.681,0.055l0,0l0.677,0.028l0.677,0.054l0.695,0.027h0.014l0.677,0.054l0,0l0.691,0.028    l0.695,0.026l0.691,0.026l0.691,0.027l0.695,0.055h0.691l0.706,0.026l0.706,0.028l0.708,0.026l0,0l0.706,0.028l0.706,0.025h0.691    l0.709,0.029h0.719l0.706,0.025h0.705l0.706,0.028h0.719h0.72h0.709h0.719h0.72h0.937h0.474h0.463h0.937h0.01h0.927l0.474-0.028    h0.449h0.937h0.014l0.909-0.025l0.488-0.029h0.436l0.923-0.025h0.042l0.881-0.028h0.502l0.407-0.026l0.923-0.028h0.042l0.87-0.026    l0.502-0.027l0.407-0.027l0.923-0.054h0.042l0.854-0.026l0.516-0.028l0.383-0.026l0.908-0.055h0.067l0.828-0.054l0.516-0.028    l0.383-0.026l0.895-0.054h0.066l0.829-0.055l0.529-0.028l0.354-0.026l0.896-0.082h0.08l0.804-0.055l0.53-0.053l0.351-0.028    l0.87-0.081h0.095l0.786-0.082l0.53-0.026l0.354-0.054l0.87-0.083h0.095l0.772-0.081l1.713-0.163h0.108l3.313-0.381l0.54-0.081    l0.302-0.027l3.365-0.434l0.138-0.028c6.054-0.813,11.865-1.846,17.354-3.04c16.522-3.611,30.199-8.799,39.527-14.938    c0.175-0.137,0.365-0.217,0.555-0.298c5.801-3.911,9.749-8.147,11.409-12.575c0.053-0.243,0.133-0.489,0.242-0.707    c0.421-1.33,0.639-2.66,0.639-4.018c0-2.934-1.046-5.813-3-8.609c-1.889-2.688-4.591-5.27-7.998-7.74    c-9.926,6.084-23.669,11.135-39.911,14.693c-12.272,2.661-26.029,4.508-40.682,5.268l-0.568,0.027l-0.829,0.055h-0.095    l-2.73,0.109h-0.066l-2.772,0.108h-0.053l-2.797,0.053h-0.042l-0.961,0.028h-0.435l-2.418,0.025h-0.474h-1.453h-1.453h-0.463    l-2.418-0.025h-0.446l-0.951-0.028H241.4l-2.811-0.053h-0.053l-2.769-0.108h-0.07l-2.727-0.109h-0.098l-0.829-0.055l-0.568-0.027    c-14.652-0.76-28.406-2.606-40.682-5.268c-6.082-1.332-11.813-2.88-17.137-4.617l-0.067-0.028l-1.021-0.325l-0.229-0.082    l-0.652-0.217l-0.123-0.055l-0.53-0.162l-0.474-0.162l-0.814-0.301l-0.165-0.055l-0.459-0.161l-0.516-0.191l-0.109-0.054    l-0.625-0.217l-0.232-0.082l-0.393-0.163l-0.596-0.218l-0.028-0.026l-0.611-0.218l-0.354-0.163l-0.256-0.081l-0.6-0.243    l-0.123-0.055l-0.474-0.191l-0.488-0.189l-0.109-0.054l-0.586-0.244l-0.256-0.109l-0.326-0.137l-0.569-0.244l-0.042-0.025    l-0.544-0.246l-0.379-0.163l-0.176-0.081l-0.572-0.244l-0.162-0.082c-0.884-0.407-1.741-0.814-2.583-1.222l-0.081-0.054    c-2.281-1.141-4.426-2.31-6.437-3.531c-3.053,2.227-5.538,4.536-7.374,6.872c-0.365,0.487-0.691,0.949-1.003,1.411l-0.014,0.027    l-0.014,0.026l-0.231,0.353l-0.025,0.028v0.026C141.569,329,141.039,330.086,140.66,331.172z M124.825,328.455    c3.124,0,6.181,0.301,9.139,0.871l0.273-0.788c-13.322-2.31-24.728-5.947-33.039-10.511c-0.596-0.325-1.193-0.651-1.765-0.979    c-2.078,1.549-3.748,3.179-4.903,4.835c-1.26,1.794-1.955,3.665-1.955,5.54c0,1.738,0.597,3.449,1.699,5.133    c0.923,1.44,2.225,2.824,3.829,4.184C105.709,331.498,114.915,328.455,124.825,328.455z M126.931,389.48    c1.425-0.326,2.593-1.006,3.492-2.065c0.909-1.032,1.355-2.281,1.355-3.692c0-1.277-0.379-2.39-1.141-3.286    c-0.744-0.923-1.979-1.63-3.706-2.146V389.48z M122.776,359.09c-1.112,0.407-1.997,1.06-2.646,1.982    c-0.653,0.896-0.979,1.9-0.979,3.016c0,1.005,0.298,1.928,0.898,2.797c0.597,0.842,1.506,1.547,2.727,2.092V359.09z     M122.776,389.018v-11.949c-3.706-1.059-6.422-2.661-8.146-4.808c-1.727-2.173-2.594-4.78-2.594-7.847    c0-3.124,0.976-5.731,2.931-7.85c1.958-2.117,4.563-3.341,7.809-3.667V350.1h4.155v2.798c3.029,0.354,5.447,1.386,7.25,3.097    c1.793,1.711,2.948,3.992,3.436,6.844l-7.251,0.923c-0.435-2.227-1.589-3.748-3.436-4.562v11.135    c4.576,1.222,7.714,2.852,9.37,4.807c1.671,1.955,2.485,4.481,2.485,7.549c0,3.449-1.032,6.328-3.124,8.691    c-2.105,2.361-4.998,3.828-8.731,4.398v5.324h-4.155v-5.27c-3.271-0.381-5.935-1.602-7.984-3.639    c-2.05-2.036-3.355-4.916-3.924-8.609l7.416-0.896c0.298,1.521,0.867,2.825,1.709,3.939    C120.835,387.715,121.758,388.501,122.776,389.018z M110.229,472.989c-1.832,0-3.341-1.493-3.341-3.34    c0-1.848,1.509-3.341,3.341-3.341h213.799c1.846,0,3.341,1.493,3.341,3.341c0,1.847-1.495,3.34-3.341,3.34H110.229z     M235.427,485.999c-1.846,0-3.341-1.495-3.341-3.342c0-1.846,1.495-3.341,3.341-3.341h147.94c1.85,0,3.341,1.495,3.341,3.341    c0,1.847-1.491,3.342-3.341,3.342H235.427z M398.51,485.999c-1.835,0-3.326-1.495-3.326-3.342c0-1.846,1.491-3.341,3.326-3.341    h18.506c1.836,0,3.327,1.495,3.327,3.341c0,1.847-1.491,3.342-3.327,3.342H398.51z M101.81,485.592    c-1.832,0-3.341-1.495-3.341-3.315c0-1.846,1.509-3.339,3.341-3.339h70.109c1.832,0,3.341,1.493,3.341,3.339    c0,1.82-1.509,3.315-3.341,3.315H101.81z M58.686,437.224c-1.835,0-3.327-1.495-3.327-3.341c0-1.847,1.492-3.342,3.327-3.342    h70.105c1.846,0,3.341,1.495,3.341,3.342c0,1.846-1.495,3.341-3.341,3.341H58.686z M368.406,455.092    c-1.836,0-3.328-1.493-3.328-3.339c0-1.819,1.492-3.314,3.328-3.314h70.105c1.835,0,3.341,1.495,3.341,3.314    c0,1.846-1.506,3.339-3.341,3.339H368.406z M194.296,43.437c0-1.848,1.509-3.341,3.341-3.341c1.846,0,3.341,1.493,3.341,3.341    v66.726c0,1.847-1.495,3.342-3.341,3.342c-1.832,0-3.341-1.495-3.341-3.342V43.437z M241.769,29.341    c0-1.819,1.492-3.339,3.327-3.339c1.832,0,3.341,1.52,3.341,3.339v66.754c0,1.847-1.509,3.341-3.341,3.341    c-1.835,0-3.327-1.494-3.327-3.341V29.341z M289.729,42.133c0-1.848,1.491-3.342,3.338-3.342c1.85,0,3.341,1.494,3.341,3.342    v66.754c0,1.818-1.491,3.313-3.341,3.313c-1.847,0-3.338-1.495-3.338-3.313V42.133z M447.542,383.205    c0.298-0.27,0.624-0.487,0.979-0.623c5.188-3.504,8.121-7.387,8.121-11.379c0-1.875-0.681-3.723-1.944-5.54    c-1.169-1.658-2.836-3.286-4.927-4.835c-3.313,1.955-7.17,3.775-11.463,5.377c-14.596,5.485-34.681,8.881-56.786,8.881    c-4.303,0-8.596-0.135-12.832-0.381c-2.526-0.163-5.011-0.353-7.43-0.596c0.109,0.787,0.151,1.602,0.151,2.416    c0,6.654-3.436,12.873-9.626,18.467c3.365,0.544,6.844,0.979,10.44,1.332c6.071,0.57,12.546,0.895,19.296,0.895    c21.319,0,40.534-3.204,54.368-8.418C440.441,387.117,444.365,385.217,447.542,383.205z" style="fill-rule:evenodd;clip-rule:evenodd;"/></g></g><g id="Layer_1"/></svg>