<svg version="1.1" id="Layer_1" xmlns="http://www.w3.org/2000/svg" xmlns:xlink="http://www.w3.org/1999/xlink" x="0px" y="0px" width="1200px" height="1200px" viewBox="0 0 1200 1200" enable-background="new 0 0 1200 1200" xml:space="preserve">
<g>
	<polygon fill="#BFB8AC" points="179.781,976.223 719.226,664.694 1020.219,838.471 480.779,1150 &#9;"/>
	<polygon fill="#CDB99A" points="480.843,1107.416 254.243,976.584 254.243,318.578 480.843,449.4 &#9;"/>
	<polygon fill="#FFFFFF" points="279.972,379.685 263.069,369.925 263.069,350.526 279.972,360.287 &#9;"/>
	<polygon fill="#FFFFFF" points="307.448,395.547 290.54,385.787 290.54,366.388 307.448,376.149 &#9;"/>
	<polygon fill="#F5F4F5" points="334.924,411.409 318.015,401.649 318.015,382.255 334.924,392.016 &#9;"/>
	<polygon fill="#FFFFFF" points="362.4,427.272 345.491,417.511 345.491,398.112 362.4,407.873 &#9;"/>
	<polygon fill="#FFFFFF" points="389.876,443.134 372.968,433.373 372.968,413.98 389.876,423.74 &#9;"/>
	<polygon fill="#FFFFFF" points="417.352,459.001 400.443,449.241 400.443,429.842 417.352,439.602 &#9;"/>
	<polygon fill="#FFFFFF" points="444.828,474.858 427.919,465.098 427.919,445.704 444.828,455.465 &#9;"/>
	<polygon fill="#FFFFFF" points="472.303,490.726 455.395,480.965 455.395,461.566 472.303,471.332 &#9;"/>
	<polygon fill="#FFFFFF" points="279.972,415.977 263.069,406.216 263.069,386.817 279.972,396.578 &#9;"/>
	<polygon fill="#FFFFFF" points="307.448,431.839 290.54,422.078 290.54,402.679 307.448,412.44 &#9;"/>
	<polygon fill="#FFFFFF" points="334.924,447.701 318.015,437.94 318.015,418.547 334.924,428.307 &#9;"/>
	<polygon fill="#FFFFFF" points="362.4,463.563 345.491,453.802 345.491,434.403 362.4,444.164 &#9;"/>
	<polygon fill="#FFFFFF" points="389.876,479.425 372.968,469.664 372.968,450.271 389.876,460.031 &#9;"/>
	<polygon fill="#FFFFFF" points="417.352,495.292 400.443,485.532 400.443,466.133 417.352,475.893 &#9;"/>
	<polygon fill="#FFFFFF" points="444.828,511.149 427.919,501.389 427.919,481.995 444.828,491.756 &#9;"/>
	<polygon fill="#FFFFFF" points="472.303,527.017 455.395,517.256 455.395,497.857 472.303,507.623 &#9;"/>
	<polygon fill="#FFFFFF" points="279.972,452.268 263.069,442.507 263.069,423.108 279.972,432.869 &#9;"/>
	<polygon fill="#FFFFFF" points="307.448,468.13 290.54,458.369 290.54,438.971 307.448,448.731 &#9;"/>
	<polygon fill="#FFFFFF" points="334.924,483.992 318.015,474.232 318.015,454.838 334.924,464.599 &#9;"/>
	<polygon fill="#FFFFFF" points="362.4,499.854 345.491,490.094 345.491,470.695 362.4,480.455 &#9;"/>
	<polygon fill="#FFFFFF" points="389.876,515.716 372.968,505.956 372.968,486.562 389.876,496.323 &#9;"/>
	<polygon fill="#FFFFFF" points="417.352,531.583 400.443,521.823 400.443,502.424 417.352,512.185 &#9;"/>
	<polygon fill="#FFFFFF" points="444.828,547.446 427.919,537.68 427.919,518.286 444.828,528.047 &#9;"/>
	<polygon fill="#FFFFFF" points="472.303,563.308 455.395,553.547 455.395,534.149 472.303,543.909 &#9;"/>
	<polygon fill="#FFFFFF" points="279.972,488.559 263.069,478.798 263.069,459.399 279.972,469.16 &#9;"/>
	<polygon fill="#FFFFFF" points="307.448,504.421 290.54,494.661 290.54,475.262 307.448,485.022 &#9;"/>
	<polygon fill="#FFFFFF" points="334.924,520.283 318.015,510.523 318.015,491.129 334.924,500.89 &#9;"/>
	<polygon fill="#FFFFFF" points="362.4,536.151 345.491,526.385 345.491,506.986 362.4,516.746 &#9;"/>
	<polygon fill="#FFFFFF" points="389.876,552.008 372.968,542.247 372.968,522.854 389.876,532.614 &#9;"/>
	<polygon fill="#FFFFFF" points="417.352,567.875 400.443,558.114 400.443,538.716 417.352,548.476 &#9;"/>
	<polygon fill="#FFFFFF" points="444.828,583.732 427.919,573.971 427.919,554.578 444.828,564.338 &#9;"/>
	<polygon fill="#FFFFFF" points="472.303,599.599 455.395,589.839 455.395,570.44 472.303,580.201 &#9;"/>
	<polygon fill="#FFFFFF" points="279.972,524.85 263.069,515.089 263.069,495.69 279.972,505.451 &#9;"/>
	<polygon fill="#FFFFFF" points="307.448,540.712 290.54,530.952 290.54,511.553 307.448,521.314 &#9;"/>
	<polygon fill="#FFFFFF" points="334.924,556.574 318.015,546.814 318.015,527.42 334.924,537.181 &#9;"/>
	<polygon fill="#FFFFFF" points="362.4,572.436 345.491,562.676 345.491,543.277 362.4,553.037 &#9;"/>
	<polygon fill="#FFFFFF" points="389.876,588.299 372.968,578.538 372.968,559.145 389.876,568.905 &#9;"/>
	<polygon fill="#FFFFFF" points="417.352,604.166 400.443,594.406 400.443,575.007 417.352,584.767 &#9;"/>
	<polygon fill="#FFFFFF" points="444.828,620.023 427.919,610.263 427.919,590.869 444.828,600.629 &#9;"/>
	<polygon fill="#FFFFFF" points="472.303,635.891 455.395,626.13 455.395,606.731 472.303,616.497 &#9;"/>
	<polygon fill="#FFFFFF" points="279.972,561.141 263.069,551.381 263.069,531.982 279.972,541.742 &#9;"/>
	<polygon fill="#FFFFFF" points="307.448,577.004 290.54,567.243 290.54,547.844 307.448,557.605 &#9;"/>
	<polygon fill="#FFFFFF" points="334.924,592.866 318.015,583.105 318.015,563.711 334.924,573.472 &#9;"/>
	<polygon fill="#FFFFFF" points="362.4,608.728 345.491,598.967 345.491,579.569 362.4,589.329 &#9;"/>
	<polygon fill="#FFFFFF" points="389.876,624.59 372.968,614.829 372.968,595.436 389.876,605.196 &#9;"/>
	<polygon fill="#FFFFFF" points="417.352,640.457 400.443,630.697 400.443,611.298 417.352,621.058 &#9;"/>
	<polygon fill="#FFFFFF" points="444.828,656.319 427.919,646.554 427.919,627.16 444.828,636.921 &#9;"/>
	<polygon fill="#FFFFFF" points="472.303,672.182 455.395,662.421 455.395,643.022 472.303,652.788 &#9;"/>
	<polygon fill="#FFFFFF" points="279.972,597.432 263.069,587.672 263.069,568.273 279.972,578.034 &#9;"/>
	<polygon fill="#FFFFFF" points="307.448,613.295 290.54,603.534 290.54,584.135 307.448,593.896 &#9;"/>
	<polygon fill="#FFFFFF" points="334.924,629.157 318.015,619.396 318.015,600.003 334.924,609.763 &#9;"/>
	<polygon fill="#FFFFFF" points="362.4,645.025 345.491,635.259 345.491,615.86 362.4,625.62 &#9;"/>
	<polygon fill="#FFFFFF" points="389.876,660.881 372.968,651.121 372.968,631.727 389.876,641.488 &#9;"/>
	<polygon fill="#FFFFFF" points="417.352,676.748 400.443,666.988 400.443,647.589 417.352,657.35 &#9;"/>
	<polygon fill="#FFFFFF" points="444.828,692.606 427.919,682.845 427.919,663.451 444.828,673.212 &#9;"/>
	<polygon fill="#FFFFFF" points="472.303,708.473 455.395,698.712 455.395,679.313 472.303,689.074 &#9;"/>
	<polygon fill="#FFFFFF" points="279.972,633.724 263.069,623.963 263.069,604.564 279.972,614.325 &#9;"/>
	<polygon fill="#FFFFFF" points="307.448,649.586 290.54,639.825 290.54,620.426 307.448,630.187 &#9;"/>
	<polygon fill="#FFFFFF" points="334.924,665.448 318.015,655.688 318.015,636.294 334.924,646.054 &#9;"/>
	<polygon fill="#FFFFFF" points="362.4,681.316 345.491,671.55 345.491,652.151 362.4,661.911 &#9;"/>
	<polygon fill="#FFFFFF" points="389.876,697.172 372.968,687.412 372.968,668.018 389.876,677.779 &#9;"/>
	<polygon fill="#FFFFFF" points="417.352,713.04 400.443,703.28 400.443,683.881 417.352,693.641 &#9;"/>
	<polygon fill="#FFFFFF" points="444.828,728.897 427.919,719.136 427.919,699.743 444.828,709.503 &#9;"/>
	<polygon fill="#FFFFFF" points="472.303,744.764 455.395,735.003 455.395,715.605 472.303,725.371 &#9;"/>
	<polygon fill="#FFFFFF" points="279.972,670.015 263.069,660.254 263.069,640.856 279.972,650.616 &#9;"/>
	<polygon fill="#FFFFFF" points="307.448,685.877 290.54,676.116 290.54,656.718 307.448,666.478 &#9;"/>
	<polygon fill="#FFFFFF" points="334.924,701.74 318.015,691.979 318.015,672.585 334.924,682.346 &#9;"/>
	<polygon fill="#FFFFFF" points="362.4,717.601 345.491,707.841 345.491,688.442 362.4,698.203 &#9;"/>
	<polygon fill="#FFFFFF" points="389.876,733.463 372.968,723.703 372.968,704.31 389.876,714.07 &#9;"/>
	<polygon fill="#FFFFFF" points="417.352,749.331 400.443,739.571 400.443,720.172 417.352,729.932 &#9;"/>
	<polygon fill="#FFFFFF" points="444.828,765.188 427.919,755.427 427.919,736.034 444.828,745.794 &#9;"/>
	<polygon fill="#FFFFFF" points="472.303,781.055 455.395,771.295 455.395,751.896 472.303,761.662 &#9;"/>
	<polygon fill="#FFFFFF" points="279.972,706.306 263.069,696.546 263.069,677.147 279.972,686.907 &#9;"/>
	<polygon fill="#FFFFFF" points="307.448,722.168 290.54,712.408 290.54,693.009 307.448,702.77 &#9;"/>
	<polygon fill="#FFFFFF" points="334.924,738.031 318.015,728.27 318.015,708.877 334.924,718.637 &#9;"/>
	<polygon fill="#FFFFFF" points="362.4,753.898 345.491,744.132 345.491,724.734 362.4,734.494 &#9;"/>
	<polygon fill="#FFFFFF" points="389.876,769.755 372.968,759.994 372.968,740.601 389.876,750.362 &#9;"/>
	<polygon fill="#FFFFFF" points="417.352,785.622 400.443,775.862 400.443,756.463 417.352,766.223 &#9;"/>
	<polygon fill="#FFFFFF" points="444.828,801.484 427.919,791.719 427.919,772.325 444.828,782.085 &#9;"/>
	<polygon fill="#FFFFFF" points="472.303,817.346 455.395,807.586 455.395,788.187 472.303,797.948 &#9;"/>
	<polygon fill="#FFFFFF" points="279.972,742.597 263.069,732.837 263.069,713.438 279.972,723.198 &#9;"/>
	<polygon fill="#FFFFFF" points="307.448,758.46 290.54,748.699 290.54,729.3 307.448,739.061 &#9;"/>
	<polygon fill="#FFFFFF" points="334.924,774.322 318.015,764.561 318.015,745.168 334.924,754.928 &#9;"/>
	<polygon fill="#FFFFFF" points="362.4,790.189 345.491,780.424 345.491,761.025 362.4,770.785 &#9;"/>
	<polygon fill="#FFFFFF" points="389.876,806.046 372.968,796.286 372.968,776.892 389.876,786.653 &#9;"/>
	<polygon fill="#FFFFFF" points="417.352,821.914 400.443,812.153 400.443,792.754 417.352,802.515 &#9;"/>
	<polygon fill="#FFFFFF" points="444.828,837.771 427.919,828.01 427.919,808.616 444.828,818.377 &#9;"/>
	<polygon fill="#FFFFFF" points="472.303,853.638 455.395,843.877 455.395,824.478 472.303,834.239 &#9;"/>
	<polygon fill="#FFFFFF" points="279.972,778.889 263.069,769.128 263.069,749.729 279.972,759.49 &#9;"/>
	<polygon fill="#FFFFFF" points="307.448,794.751 290.54,784.99 290.54,765.591 307.448,775.352 &#9;"/>
	<polygon fill="#FFFFFF" points="334.924,810.613 318.015,800.852 318.015,781.459 334.924,791.219 &#9;"/>
	<polygon fill="#FFFFFF" points="362.4,826.475 345.491,816.715 345.491,797.316 362.4,807.076 &#9;"/>
	<polygon fill="#FFFFFF" points="389.876,842.337 372.968,832.577 372.968,813.183 389.876,822.944 &#9;"/>
	<polygon fill="#FFFFFF" points="417.352,858.205 400.443,848.444 400.443,829.045 417.352,838.806 &#9;"/>
	<polygon fill="#FFFFFF" points="444.828,874.062 427.919,864.301 427.919,844.908 444.828,854.668 &#9;"/>
	<polygon fill="#FFFFFF" points="472.303,889.929 455.395,880.169 455.395,860.77 472.303,870.536 &#9;"/>
	<polygon fill="#FFFFFF" points="279.972,815.18 263.069,805.42 263.069,786.021 279.972,795.781 &#9;"/>
	<polygon fill="#FFFFFF" points="307.448,831.042 290.54,821.281 290.54,801.883 307.448,811.643 &#9;"/>
	<polygon fill="#FFFFFF" points="334.924,846.904 318.015,837.143 318.015,817.75 334.924,827.511 &#9;"/>
	<polygon fill="#FFFFFF" points="362.4,862.772 345.491,853.011 345.491,833.607 362.4,843.373 &#9;"/>
	<polygon fill="#FFFFFF" points="389.876,878.628 372.968,868.868 372.968,849.474 389.876,859.235 &#9;"/>
	<polygon fill="#FFFFFF" points="417.352,894.496 400.443,884.736 400.443,865.337 417.352,875.097 &#9;"/>
	<polygon fill="#FFFFFF" points="444.828,910.358 427.919,900.592 427.919,881.199 444.828,890.959 &#9;"/>
	<polygon fill="#FFFFFF" points="472.303,926.22 455.395,916.46 455.395,897.061 472.303,906.827 &#9;"/>
	<polygon fill="#FFFFFF" points="279.972,851.471 263.069,841.711 263.069,822.312 279.972,832.072 &#9;"/>
	<polygon fill="#FFFFFF" points="307.448,867.333 290.54,857.573 290.54,838.174 307.448,847.934 &#9;"/>
	<polygon fill="#FFFFFF" points="334.924,883.195 318.015,873.435 318.015,854.042 334.924,863.802 &#9;"/>
	<polygon fill="#FFFFFF" points="362.4,899.063 345.491,889.297 345.491,869.898 362.4,879.659 &#9;"/>
	<polygon fill="#FFFFFF" points="389.876,914.92 372.968,905.159 372.968,885.765 389.876,895.526 &#9;"/>
	<polygon fill="#FFFFFF" points="417.352,930.787 400.443,921.027 400.443,901.628 417.352,911.389 &#9;"/>
	<polygon fill="#FFFFFF" points="444.828,946.649 427.919,936.883 427.919,917.49 444.828,927.251 &#9;"/>
	<polygon fill="#FFFFFF" points="472.303,962.511 455.395,952.751 455.395,933.352 472.303,943.112 &#9;"/>
	<polygon fill="#FFFFFF" points="279.972,887.762 263.069,878.002 263.069,858.603 279.972,868.364 &#9;"/>
	<polygon fill="#FFFFFF" points="307.448,903.624 290.54,893.864 290.54,874.465 307.448,884.225 &#9;"/>
	<polygon fill="#FFFFFF" points="334.924,919.487 318.015,909.726 318.015,890.333 334.924,900.093 &#9;"/>
	<polygon fill="#FFFFFF" points="362.4,935.354 345.491,925.588 345.491,906.189 362.4,915.95 &#9;"/>
	<polygon fill="#FFFFFF" points="389.876,951.211 372.968,941.451 372.968,922.057 389.876,931.817 &#9;"/>
	<polygon fill="#FFFFFF" points="417.352,967.079 400.443,957.318 400.443,937.919 417.352,947.68 &#9;"/>
	<polygon fill="#FFFFFF" points="444.828,982.935 427.919,973.175 427.919,953.781 444.828,963.542 &#9;"/>
	<polygon fill="#FFFFFF" points="472.303,998.803 455.395,989.042 455.395,969.644 472.303,979.409 &#9;"/>
	<polygon fill="#FFFFFF" points="279.972,924.054 263.069,914.293 263.069,894.894 279.972,904.655 &#9;"/>
	<polygon fill="#FFFFFF" points="307.448,939.916 290.54,930.155 290.54,910.757 307.448,920.517 &#9;"/>
	<polygon fill="#FFFFFF" points="334.924,955.778 318.015,946.017 318.015,926.624 334.924,936.384 &#9;"/>
	<polygon fill="#FFFFFF" points="362.4,971.64 345.491,961.879 345.491,942.481 362.4,952.241 &#9;"/>
	<polygon fill="#FFFFFF" points="389.876,987.502 372.968,977.742 372.968,958.348 389.876,968.109 &#9;"/>
	<polygon fill="#FFFFFF" points="417.352,1003.37 400.443,993.609 400.443,974.21 417.352,983.971 &#9;"/>
	<polygon fill="#FFFFFF" points="444.828,1019.232 427.919,1009.466 427.919,990.073 444.828,999.833 &#9;"/>
	<polygon fill="#FFFFFF" points="472.303,1035.094 455.395,1025.334 455.395,1005.935 472.303,1015.701 &#9;"/>
	<polygon fill="#A19079" points="480.619,1105.266 480.619,449.411 945.826,180.827 945.826,836.676 &#9;" style="fill: rgb(104, 92, 74);"/>
	<polygon fill="#A5D9E9" points="509.137,477.779 492.234,487.539 492.234,468.14 509.137,458.385 &#9;" style="fill: rgb(25, 15, 0);"/>
	<polygon fill="#A5D9E9" points="536.612,461.917 519.709,471.677 519.709,452.279 536.612,442.518 &#9;" style="fill: rgb(25, 15, 0);"/>
	<polygon fill="#A5D9E9" points="564.088,446.054 547.18,455.815 547.18,436.411 564.088,426.661 &#9;" style="fill: rgb(25, 15, 0);"/>
	<polygon fill="#A5D9E9" points="591.565,430.192 574.656,439.953 574.656,420.554 591.565,410.793 &#9;" style="fill: rgb(25, 15, 0);"/>
	<polygon fill="#A5D9E9" points="619.04,414.33 602.132,424.091 602.132,404.687 619.04,394.932 &#9;" style="fill: rgb(25, 15, 0);"/>
	<polygon fill="#A5D9E9" points="646.517,398.463 629.608,408.223 629.608,388.824 646.517,379.069 &#9;" style="fill: rgb(25, 15, 0);"/>
	<polygon fill="#A5D9E9" points="673.992,382.606 657.084,392.367 657.084,372.962 673.992,363.207 &#9;" style="fill: rgb(25, 15, 0);"/>
	<polygon fill="#A5D9E9" points="509.137,514.07 492.234,523.831 492.234,504.432 509.137,494.676 &#9;" style="fill: rgb(25, 15, 0);"/>
	<polygon fill="#A5D9E9" points="536.612,498.208 519.709,507.969 519.709,488.57 536.612,478.809 &#9;" style="fill: rgb(25, 15, 0);"/>
	<polygon fill="#A5D9E9" points="564.088,482.345 547.18,492.106 547.18,472.702 564.088,462.952 &#9;" style="fill: rgb(25, 15, 0);"/>
	<polygon fill="#A5D9E9" points="591.565,466.484 574.656,476.244 574.656,456.845 591.565,447.085 &#9;" style="fill: rgb(25, 15, 0);"/>
	<polygon fill="#A5D9E9" points="619.04,450.622 602.132,460.382 602.132,440.978 619.04,431.223 &#9;" style="fill: rgb(25, 15, 0);"/>
	<polygon fill="#A5D9E9" points="646.517,434.754 629.608,444.514 629.608,425.115 646.517,415.361 &#9;" style="fill: rgb(25, 15, 0);"/>
	<polygon fill="#A5D9E9" points="673.992,418.897 657.084,428.658 657.084,409.253 673.992,399.498 &#9;" style="fill: rgb(25, 15, 0);"/>
	<polygon fill="#A5D9E9" points="509.137,550.361 492.234,560.122 492.234,540.723 509.137,530.968 &#9;" style="fill: rgb(25, 15, 0);"/>
	<polygon fill="#A5D9E9" points="536.612,534.499 519.709,544.265 519.709,524.861 536.612,515.1 &#9;" style="fill: rgb(25, 15, 0);"/>
	<polygon fill="#A5D9E9" points="564.088,518.637 547.18,528.397 547.18,508.993 564.088,499.244 &#9;" style="fill: rgb(25, 15, 0);"/>
	<polygon fill="#A5D9E9" points="591.565,502.775 574.656,512.535 574.656,493.136 591.565,483.376 &#9;" style="fill: rgb(25, 15, 0);"/>
	<polygon fill="#A5D9E9" points="619.04,486.913 602.132,496.673 602.132,477.269 619.04,467.514 &#9;" style="fill: rgb(25, 15, 0);"/>
	<polygon fill="#A5D9E9" points="646.517,471.045 629.608,480.805 629.608,461.407 646.517,451.652 &#9;" style="fill: rgb(25, 15, 0);"/>
	<polygon fill="#A5D9E9" points="673.992,455.188 657.084,464.949 657.084,445.545 673.992,435.789 &#9;" style="fill: rgb(25, 15, 0);"/>
	<polygon fill="#A5D9E9" points="509.137,586.653 492.234,596.413 492.234,577.014 509.137,567.259 &#9;" style="fill: rgb(25, 15, 0);"/>
	<polygon fill="#A5D9E9" points="536.612,570.79 519.709,580.556 519.709,561.152 536.612,551.391 &#9;" style="fill: rgb(25, 15, 0);"/>
	<polygon fill="#A5D9E9" points="564.088,554.928 547.18,564.689 547.18,545.285 564.088,535.535 &#9;" style="fill: rgb(25, 15, 0);"/>
	<polygon fill="#A5D9E9" points="591.565,539.066 574.656,548.826 574.656,529.428 591.565,519.667 &#9;" style="fill: rgb(25, 15, 0);"/>
	<polygon fill="#A5D9E9" points="619.04,523.204 602.132,532.964 602.132,513.56 619.04,503.805 &#9;" style="fill: rgb(25, 15, 0);"/>
	<polygon fill="#A5D9E9" points="646.517,507.337 629.608,517.097 629.608,497.698 646.517,487.943 &#9;" style="fill: rgb(25, 15, 0);"/>
	<polygon fill="#A5D9E9" points="673.992,491.479 657.084,501.24 657.084,481.836 673.992,472.081 &#9;" style="fill: rgb(25, 15, 0);"/>
	<polygon fill="#A5D9E9" points="509.137,622.944 492.234,632.704 492.234,613.306 509.137,603.55 &#9;" style="fill: rgb(25, 15, 0);"/>
	<polygon fill="#A5D9E9" points="536.612,607.081 519.709,616.842 519.709,597.443 536.612,587.682 &#9;" style="fill: rgb(25, 15, 0);"/>
	<polygon fill="#A5D9E9" points="564.088,591.219 547.18,600.98 547.18,581.576 564.088,571.826 &#9;" style="fill: rgb(25, 15, 0);"/>
	<polygon fill="#A5D9E9" points="591.565,575.357 574.656,585.118 574.656,565.719 591.565,555.959 &#9;" style="fill: rgb(25, 15, 0);"/>
	<polygon fill="#A5D9E9" points="619.04,559.495 602.132,569.256 602.132,549.851 619.04,540.096 &#9;" style="fill: rgb(25, 15, 0);"/>
	<polygon fill="#A5D9E9" points="646.517,543.628 629.608,553.388 629.608,533.989 646.517,524.234 &#9;" style="fill: rgb(25, 15, 0);"/>
	<polygon fill="#A5D9E9" points="673.992,527.771 657.084,537.531 657.084,518.127 673.992,508.372 &#9;" style="fill: rgb(25, 15, 0);"/>
	<polygon fill="#A5D9E9" points="509.137,659.235 492.234,668.996 492.234,649.597 509.137,639.841 &#9;" style="fill: rgb(25, 15, 0);"/>
	<polygon fill="#A5D9E9" points="536.612,643.373 519.709,653.139 519.709,633.734 536.612,623.974 &#9;" style="fill: rgb(25, 15, 0);"/>
	<polygon fill="#A5D9E9" points="564.088,627.511 547.18,637.271 547.18,617.867 564.088,608.117 &#9;" style="fill: rgb(25, 15, 0);"/>
	<polygon fill="#A5D9E9" points="591.565,611.649 574.656,621.409 574.656,602.01 591.565,592.25 &#9;" style="fill: rgb(25, 15, 0);"/>
	<polygon fill="#A5D9E9" points="619.04,595.786 602.132,605.547 602.132,586.142 619.04,576.388 &#9;" style="fill: rgb(25, 15, 0);"/>
	<polygon fill="#A5D9E9" points="646.517,579.919 629.608,589.679 629.608,570.28 646.517,560.525 &#9;" style="fill: rgb(25, 15, 0);"/>
	<polygon fill="#A5D9E9" points="673.992,564.062 657.084,573.823 657.084,554.419 673.992,544.663 &#9;" style="fill: rgb(25, 15, 0);"/>
	<polygon fill="#A5D9E9" points="509.137,695.526 492.234,705.287 492.234,685.888 509.137,676.133 &#9;" style="fill: rgb(25, 15, 0);"/>
	<polygon fill="#A5D9E9" points="536.612,679.664 519.709,689.43 519.709,670.026 536.612,660.265 &#9;" style="fill: rgb(25, 15, 0);"/>
	<polygon fill="#A5D9E9" points="564.088,663.802 547.18,673.562 547.18,654.158 564.088,644.408 &#9;" style="fill: rgb(25, 15, 0);"/>
	<polygon fill="#A5D9E9" points="591.565,647.94 574.656,657.7 574.656,638.301 591.565,628.541 &#9;" style="fill: rgb(25, 15, 0);"/>
	<polygon fill="#A5D9E9" points="619.04,632.078 602.132,641.838 602.132,622.434 619.04,612.679 &#9;" style="fill: rgb(25, 15, 0);"/>
	<polygon fill="#A5D9E9" points="646.517,616.21 629.608,625.971 629.608,606.572 646.517,596.816 &#9;" style="fill: rgb(25, 15, 0);"/>
	<polygon fill="#A5D9E9" points="673.992,600.353 657.084,610.114 657.084,590.71 673.992,580.954 &#9;" style="fill: rgb(25, 15, 0);"/>
	<polygon fill="#A5D9E9" points="509.137,731.817 492.234,741.578 492.234,722.179 509.137,712.424 &#9;" style="fill: rgb(25, 15, 0);"/>
	<polygon fill="#A5D9E9" points="536.612,715.955 519.709,725.721 519.709,706.317 536.612,696.556 &#9;" style="fill: rgb(25, 15, 0);"/>
	<polygon fill="#A5D9E9" points="564.088,700.093 547.18,709.853 547.18,690.45 564.088,680.699 &#9;" style="fill: rgb(25, 15, 0);"/>
	<polygon fill="#A5D9E9" points="591.565,684.231 574.656,693.991 574.656,674.593 591.565,664.832 &#9;" style="fill: rgb(25, 15, 0);"/>
	<polygon fill="#A5D9E9" points="619.04,668.369 602.132,678.13 602.132,658.725 619.04,648.97 &#9;" style="fill: rgb(25, 15, 0);"/>
	<polygon fill="#A5D9E9" points="646.517,652.502 629.608,662.262 629.608,642.863 646.517,633.108 &#9;" style="fill: rgb(25, 15, 0);"/>
	<polygon fill="#A5D9E9" points="673.992,636.644 657.084,646.405 657.084,627.001 673.992,617.246 &#9;" style="fill: rgb(25, 15, 0);"/>
	<polygon fill="#A5D9E9" points="509.137,768.108 492.234,777.869 492.234,758.47 509.137,748.715 &#9;" style="fill: rgb(25, 15, 0);"/>
	<polygon fill="#A5D9E9" points="536.612,752.246 519.709,762.007 519.709,742.608 536.612,732.848 &#9;" style="fill: rgb(25, 15, 0);"/>
	<polygon fill="#A5D9E9" points="564.088,736.384 547.18,746.145 547.18,726.741 564.088,716.991 &#9;" style="fill: rgb(25, 15, 0);"/>
	<polygon fill="#A5D9E9" points="591.565,720.522 574.656,730.283 574.656,710.884 591.565,701.123 &#9;" style="fill: rgb(25, 15, 0);"/>
	<polygon fill="#A5D9E9" points="619.04,704.66 602.132,714.421 602.132,695.016 619.04,685.261 &#9;" style="fill: rgb(25, 15, 0);"/>
	<polygon fill="#A5D9E9" points="646.517,688.793 629.608,698.553 629.608,679.154 646.517,669.399 &#9;" style="fill: rgb(25, 15, 0);"/>
	<polygon fill="#A5D9E9" points="673.992,672.936 657.084,682.696 657.084,663.292 673.992,653.537 &#9;" style="fill: rgb(25, 15, 0);"/>
	<polygon fill="#A5D9E9" points="509.137,804.4 492.234,814.16 492.234,794.761 509.137,785.007 &#9;" style="fill: rgb(25, 15, 0);"/>
	<polygon fill="#A5D9E9" points="536.612,788.538 519.709,798.304 519.709,778.899 536.612,769.139 &#9;" style="fill: rgb(25, 15, 0);"/>
	<polygon fill="#A5D9E9" points="564.088,772.676 547.18,782.436 547.18,763.032 564.088,753.282 &#9;" style="fill: rgb(25, 15, 0);"/>
	<polygon fill="#A5D9E9" points="591.565,756.814 574.656,766.574 574.656,747.175 591.565,737.415 &#9;" style="fill: rgb(25, 15, 0);"/>
	<polygon fill="#A5D9E9" points="619.04,740.951 602.132,750.712 602.132,731.308 619.04,721.552 &#9;" style="fill: rgb(25, 15, 0);"/>
	<polygon fill="#A5D9E9" points="646.517,725.084 629.608,734.844 629.608,715.446 646.517,705.69 &#9;" style="fill: rgb(25, 15, 0);"/>
	<polygon fill="#A5D9E9" points="673.992,709.227 657.084,718.987 657.084,699.583 673.992,689.828 &#9;" style="fill: rgb(25, 15, 0);"/>
	<polygon fill="#A5D9E9" points="509.137,840.691 492.234,850.452 492.234,831.053 509.137,821.298 &#9;" style="fill: rgb(25, 15, 0);"/>
	<polygon fill="#A5D9E9" points="536.612,824.829 519.709,834.595 519.709,815.19 536.612,805.43 &#9;" style="fill: rgb(25, 15, 0);"/>
	<polygon fill="#A5D9E9" points="564.088,808.967 547.18,818.727 547.18,799.323 564.088,789.573 &#9;" style="fill: rgb(25, 15, 0);"/>
	<polygon fill="#A5D9E9" points="591.565,793.105 574.656,802.865 574.656,783.466 591.565,773.706 &#9;" style="fill: rgb(25, 15, 0);"/>
	<polygon fill="#A5D9E9" points="619.04,777.242 602.132,787.003 602.132,767.599 619.04,757.843 &#9;" style="fill: rgb(25, 15, 0);"/>
	<polygon fill="#A5D9E9" points="646.517,761.375 629.608,771.136 629.608,751.737 646.517,741.981 &#9;" style="fill: rgb(25, 15, 0);"/>
	<polygon fill="#A5D9E9" points="673.992,745.518 657.084,755.279 657.084,735.875 673.992,726.119 &#9;" style="fill: rgb(25, 15, 0);"/>
	<polygon fill="#A5D9E9" points="509.137,876.982 492.234,886.743 492.234,867.344 509.137,857.589 &#9;" style="fill: rgb(25, 15, 0);"/>
	<polygon fill="#A5D9E9" points="536.612,861.12 519.709,870.88 519.709,851.482 536.612,841.721 &#9;" style="fill: rgb(25, 15, 0);"/>
	<polygon fill="#A5D9E9" points="564.088,845.258 547.18,855.019 547.18,835.614 564.088,825.864 &#9;" style="fill: rgb(25, 15, 0);"/>
	<polygon fill="#A5D9E9" points="591.565,829.396 574.656,839.157 574.656,819.758 591.565,809.997 &#9;" style="fill: rgb(25, 15, 0);"/>
	<polygon fill="#A5D9E9" points="619.04,813.534 602.132,823.294 602.132,803.89 619.04,794.135 &#9;" style="fill: rgb(25, 15, 0);"/>
	<polygon fill="#A5D9E9" points="646.517,797.666 629.608,807.427 629.608,788.028 646.517,778.273 &#9;" style="fill: rgb(25, 15, 0);"/>
	<polygon fill="#A5D9E9" points="673.992,781.81 657.084,791.57 657.084,772.166 673.992,762.411 &#9;" style="fill: rgb(25, 15, 0);"/>
	<polygon fill="#A5D9E9" points="509.137,913.273 492.234,923.034 492.234,903.635 509.137,893.88 &#9;" style="fill: rgb(25, 15, 0);"/>
	<polygon fill="#A5D9E9" points="536.612,897.411 519.709,907.177 519.709,887.773 536.612,878.013 &#9;" style="fill: rgb(25, 15, 0);"/>
	<polygon fill="#A5D9E9" points="564.088,881.549 547.18,891.31 547.18,871.905 564.088,862.156 &#9;" style="fill: rgb(25, 15, 0);"/>
	<polygon fill="#A5D9E9" points="591.565,865.687 574.656,875.448 574.656,856.049 591.565,846.288 &#9;" style="fill: rgb(25, 15, 0);"/>
	<polygon fill="#A5D9E9" points="619.04,849.825 602.132,859.586 602.132,840.181 619.04,830.426 &#9;" style="fill: rgb(25, 15, 0);"/>
	<polygon fill="#A5D9E9" points="646.517,833.957 629.608,843.718 629.608,824.319 646.517,814.564 &#9;" style="fill: rgb(25, 15, 0);"/>
	<polygon fill="#A5D9E9" points="673.992,818.101 657.084,827.861 657.084,808.457 673.992,798.702 &#9;" style="fill: rgb(25, 15, 0);"/>
	<polygon fill="#A5D9E9" points="509.137,949.565 492.234,959.325 492.234,939.926 509.137,930.171 &#9;" style="fill: rgb(25, 15, 0);"/>
	<polygon fill="#A5D9E9" points="536.612,933.703 519.709,943.469 519.709,924.064 536.612,914.304 &#9;" style="fill: rgb(25, 15, 0);"/>
	<polygon fill="#A5D9E9" points="564.088,917.841 547.18,927.601 547.18,908.197 564.088,898.447 &#9;" style="fill: rgb(25, 15, 0);"/>
	<polygon fill="#A5D9E9" points="591.565,901.978 574.656,911.739 574.656,892.34 591.565,882.579 &#9;" style="fill: rgb(25, 15, 0);"/>
	<polygon fill="#A5D9E9" points="619.04,886.116 602.132,895.877 602.132,876.473 619.04,866.717 &#9;" style="fill: rgb(25, 15, 0);"/>
	<polygon fill="#A5D9E9" points="646.517,870.249 629.608,880.009 629.608,860.611 646.517,850.855 &#9;" style="fill: rgb(25, 15, 0);"/>
	<polygon fill="#A5D9E9" points="673.992,854.392 657.084,864.152 657.084,844.748 673.992,834.993 &#9;" style="fill: rgb(25, 15, 0);"/>
	<polygon fill="#A5D9E9" points="509.137,985.856 492.234,995.616 492.234,976.217 509.137,966.462 &#9;" style="fill: rgb(25, 15, 0);"/>
	<polygon fill="#A5D9E9" points="536.612,969.994 519.709,979.76 519.709,960.355 536.612,950.595 &#9;" style="fill: rgb(25, 15, 0);"/>
	<polygon fill="#A5D9E9" points="564.088,954.132 547.18,963.892 547.18,944.488 564.088,934.738 &#9;" style="fill: rgb(25, 15, 0);"/>
	<polygon fill="#A5D9E9" points="591.565,938.269 574.656,948.03 574.656,928.631 591.565,918.87 &#9;" style="fill: rgb(25, 15, 0);"/>
	<polygon fill="#A5D9E9" points="619.04,922.407 602.132,932.168 602.132,912.764 619.04,903.008 &#9;" style="fill: rgb(25, 15, 0);"/>
	<polygon fill="#A5D9E9" points="646.517,906.54 629.608,916.301 629.608,896.902 646.517,887.147 &#9;" style="fill: rgb(25, 15, 0);"/>
	<polygon fill="#A5D9E9" points="673.992,890.683 657.084,900.444 657.084,881.039 673.992,871.284 &#9;" style="fill: rgb(25, 15, 0);"/>
	<polygon fill="#A5D9E9" points="509.137,1022.147 492.234,1031.907 492.234,1012.509 509.137,1002.754 &#9;" style="fill: rgb(25, 15, 0);"/>
	<polygon fill="#A5D9E9" points="536.612,1006.285 519.709,1016.046 519.709,996.647 536.612,986.886 &#9;" style="fill: rgb(25, 15, 0);"/>
	<polygon fill="#A5D9E9" points="564.088,990.423 547.18,1000.184 547.18,980.779 564.088,971.029 &#9;" style="fill: rgb(25, 15, 0);"/>
	<polygon fill="#A5D9E9" points="591.565,974.56 574.656,984.321 574.656,964.922 591.565,955.162 &#9;" style="fill: rgb(25, 15, 0);"/>
	<polygon fill="#A5D9E9" points="619.04,958.699 602.132,968.459 602.132,949.055 619.04,939.3 &#9;" style="fill: rgb(25, 15, 0);"/>
	<polygon fill="#A5D9E9" points="646.517,942.831 629.608,952.592 629.608,933.193 646.517,923.438 &#9;" style="fill: rgb(25, 15, 0);"/>
	<polygon fill="#A5D9E9" points="673.992,926.974 657.084,936.735 657.084,917.331 673.992,907.576 &#9;" style="fill: rgb(25, 15, 0);"/>
	<polygon fill="#A5D9E9" points="765.305,329.884 748.396,339.645 748.396,320.241 765.305,310.48 &#9;" style="fill: rgb(25, 15, 0);"/>
	<polygon fill="#A5D9E9" points="792.775,314.022 775.872,323.783 775.872,304.384 792.775,294.624 &#9;" style="fill: rgb(25, 15, 0);"/>
	<polygon fill="#A5D9E9" points="820.251,298.16 803.348,307.921 803.348,288.516 820.251,278.756 &#9;" style="fill: rgb(25, 15, 0);"/>
	<polygon fill="#A5D9E9" points="847.727,282.293 830.824,292.053 830.824,272.654 847.727,262.899 &#9;" style="fill: rgb(25, 15, 0);"/>
	<polygon fill="#A5D9E9" points="875.203,266.436 858.295,276.196 858.295,256.792 875.203,247.032 &#9;" style="fill: rgb(25, 15, 0);"/>
	<polygon fill="#A5D9E9" points="902.679,250.568 885.771,260.329 885.771,240.925 902.679,231.175 &#9;" style="fill: rgb(25, 15, 0);"/>
	<polygon fill="#A5D9E9" points="930.155,234.706 913.247,244.467 913.247,225.068 930.155,215.307 &#9;" style="fill: rgb(25, 15, 0);"/>
	<polygon fill="#A5D9E9" points="765.305,366.176 748.396,375.936 748.396,356.532 765.305,346.782 &#9;" style="fill: rgb(25, 15, 0);"/>
	<polygon fill="#A5D9E9" points="792.775,350.314 775.872,360.074 775.872,340.675 792.775,330.915 &#9;" style="fill: rgb(25, 15, 0);"/>
	<polygon fill="#A5D9E9" points="820.251,334.451 803.348,344.212 803.348,324.807 820.251,315.047 &#9;" style="fill: rgb(25, 15, 0);"/>
	<polygon fill="#A5D9E9" points="847.727,318.584 830.824,328.344 830.824,308.946 847.727,299.19 &#9;" style="fill: rgb(25, 15, 0);"/>
	<polygon fill="#A5D9E9" points="875.203,302.727 858.295,312.487 858.295,293.084 875.203,283.323 &#9;" style="fill: rgb(25, 15, 0);"/>
	<polygon fill="#A5D9E9" points="902.679,286.859 885.771,296.62 885.771,277.216 902.679,267.466 &#9;" style="fill: rgb(25, 15, 0);"/>
	<polygon fill="#A5D9E9" points="930.155,270.997 913.247,280.758 913.247,261.359 930.155,251.599 &#9;" style="fill: rgb(25, 15, 0);"/>
	<polygon fill="#A5D9E9" points="765.305,402.467 748.396,412.227 748.396,392.823 765.305,383.073 &#9;" style="fill: rgb(25, 15, 0);"/>
	<polygon fill="#A5D9E9" points="792.775,386.605 775.872,396.365 775.872,376.961 792.775,367.206 &#9;" style="fill: rgb(25, 15, 0);"/>
	<polygon fill="#A5D9E9" points="820.251,370.742 803.348,380.503 803.348,361.099 820.251,351.344 &#9;" style="fill: rgb(25, 15, 0);"/>
	<polygon fill="#A5D9E9" points="847.727,354.875 830.824,364.636 830.824,345.237 847.727,335.481 &#9;" style="fill: rgb(25, 15, 0);"/>
	<polygon fill="#A5D9E9" points="875.203,339.018 858.295,348.778 858.295,329.375 875.203,319.614 &#9;" style="fill: rgb(25, 15, 0);"/>
	<polygon fill="#A5D9E9" points="902.679,323.151 885.771,332.911 885.771,313.512 902.679,303.757 &#9;" style="fill: rgb(25, 15, 0);"/>
	<polygon fill="#A5D9E9" points="930.155,307.289 913.247,317.049 913.247,297.65 930.155,287.89 &#9;" style="fill: rgb(25, 15, 0);"/>
	<polygon fill="#A5D9E9" points="765.305,438.758 748.396,448.518 748.396,429.114 765.305,419.364 &#9;" style="fill: rgb(25, 15, 0);"/>
	<polygon fill="#A5D9E9" points="792.775,422.896 775.872,432.657 775.872,413.258 792.775,403.497 &#9;" style="fill: rgb(25, 15, 0);"/>
	<polygon fill="#A5D9E9" points="820.251,407.034 803.348,416.794 803.348,397.39 820.251,387.635 &#9;" style="fill: rgb(25, 15, 0);"/>
	<polygon fill="#A5D9E9" points="847.727,391.166 830.824,400.927 830.824,381.528 847.727,371.773 &#9;" style="fill: rgb(25, 15, 0);"/>
	<polygon fill="#A5D9E9" points="875.203,375.31 858.295,385.07 858.295,365.666 875.203,355.911 &#9;" style="fill: rgb(25, 15, 0);"/>
	<polygon fill="#A5D9E9" points="902.679,359.442 885.771,369.202 885.771,349.798 902.679,340.049 &#9;" style="fill: rgb(25, 15, 0);"/>
	<polygon fill="#A5D9E9" points="930.155,343.58 913.247,353.34 913.247,333.941 930.155,324.181 &#9;" style="fill: rgb(25, 15, 0);"/>
	<polygon fill="#A5D9E9" points="765.305,475.05 748.396,484.81 748.396,465.406 765.305,455.655 &#9;" style="fill: rgb(25, 15, 0);"/>
	<polygon fill="#A5D9E9" points="792.775,459.187 775.872,468.948 775.872,449.549 792.775,439.788 &#9;" style="fill: rgb(25, 15, 0);"/>
	<polygon fill="#A5D9E9" points="820.251,443.325 803.348,453.086 803.348,433.681 820.251,423.926 &#9;" style="fill: rgb(25, 15, 0);"/>
	<polygon fill="#A5D9E9" points="847.727,427.458 830.824,437.218 830.824,417.819 847.727,408.064 &#9;" style="fill: rgb(25, 15, 0);"/>
	<polygon fill="#A5D9E9" points="875.203,411.601 858.295,421.361 858.295,401.957 875.203,392.202 &#9;" style="fill: rgb(25, 15, 0);"/>
	<polygon fill="#A5D9E9" points="902.679,395.733 885.771,405.494 885.771,386.09 902.679,376.34 &#9;" style="fill: rgb(25, 15, 0);"/>
	<polygon fill="#A5D9E9" points="930.155,379.871 913.247,389.631 913.247,370.233 930.155,360.472 &#9;" style="fill: rgb(25, 15, 0);"/>
	<polygon fill="#A5D9E9" points="765.305,511.341 748.396,521.101 748.396,501.697 765.305,491.947 &#9;" style="fill: rgb(25, 15, 0);"/>
	<polygon fill="#A5D9E9" points="792.775,495.478 775.872,505.239 775.872,485.834 792.775,476.079 &#9;" style="fill: rgb(25, 15, 0);"/>
	<polygon fill="#A5D9E9" points="820.251,479.616 803.348,489.377 803.348,469.973 820.251,460.217 &#9;" style="fill: rgb(25, 15, 0);"/>
	<polygon fill="#A5D9E9" points="847.727,463.749 830.824,473.509 830.824,454.111 847.727,444.355 &#9;" style="fill: rgb(25, 15, 0);"/>
	<polygon fill="#A5D9E9" points="875.203,447.892 858.295,457.652 858.295,438.248 875.203,428.493 &#9;" style="fill: rgb(25, 15, 0);"/>
	<polygon fill="#A5D9E9" points="902.679,432.024 885.771,441.785 885.771,422.381 902.679,412.631 &#9;" style="fill: rgb(25, 15, 0);"/>
	<polygon fill="#A5D9E9" points="930.155,416.162 913.247,425.923 913.247,406.524 930.155,396.764 &#9;" style="fill: rgb(25, 15, 0);"/>
	<polygon fill="#A5D9E9" points="765.305,547.632 748.396,557.392 748.396,537.988 765.305,528.238 &#9;" style="fill: rgb(25, 15, 0);"/>
	<polygon fill="#A5D9E9" points="792.775,531.769 775.872,541.53 775.872,522.131 792.775,512.371 &#9;" style="fill: rgb(25, 15, 0);"/>
	<polygon fill="#A5D9E9" points="820.251,515.907 803.348,525.668 803.348,506.264 820.251,496.508 &#9;" style="fill: rgb(25, 15, 0);"/>
	<polygon fill="#A5D9E9" points="847.727,500.04 830.824,509.801 830.824,490.402 847.727,480.646 &#9;" style="fill: rgb(25, 15, 0);"/>
	<polygon fill="#A5D9E9" points="875.203,484.183 858.295,493.944 858.295,474.539 875.203,464.785 &#9;" style="fill: rgb(25, 15, 0);"/>
	<polygon fill="#A5D9E9" points="902.679,468.316 885.771,478.076 885.771,458.672 902.679,448.922 &#9;" style="fill: rgb(25, 15, 0);"/>
	<polygon fill="#A5D9E9" points="930.155,452.454 913.247,462.214 913.247,442.815 930.155,433.055 &#9;" style="fill: rgb(25, 15, 0);"/>
	<polygon fill="#A5D9E9" points="765.305,583.923 748.396,593.684 748.396,574.279 765.305,564.529 &#9;" style="fill: rgb(25, 15, 0);"/>
	<polygon fill="#A5D9E9" points="792.775,568.061 775.872,577.821 775.872,558.423 792.775,548.662 &#9;" style="fill: rgb(25, 15, 0);"/>
	<polygon fill="#A5D9E9" points="820.251,552.199 803.348,561.959 803.348,542.555 820.251,532.8 &#9;" style="fill: rgb(25, 15, 0);"/>
	<polygon fill="#A5D9E9" points="847.727,536.331 830.824,546.092 830.824,526.693 847.727,516.938 &#9;" style="fill: rgb(25, 15, 0);"/>
	<polygon fill="#A5D9E9" points="875.203,520.475 858.295,530.235 858.295,510.831 875.203,501.076 &#9;" style="fill: rgb(25, 15, 0);"/>
	<polygon fill="#A5D9E9" points="902.679,504.607 885.771,514.367 885.771,494.963 902.679,485.213 &#9;" style="fill: rgb(25, 15, 0);"/>
	<polygon fill="#A5D9E9" points="930.155,488.745 913.247,498.505 913.247,479.106 930.155,469.346 &#9;" style="fill: rgb(25, 15, 0);"/>
	<polygon fill="#A5D9E9" points="765.305,620.214 748.396,629.975 748.396,610.57 765.305,600.821 &#9;" style="fill: rgb(25, 15, 0);"/>
	<polygon fill="#A5D9E9" points="792.775,604.352 775.872,614.113 775.872,594.714 792.775,584.953 &#9;" style="fill: rgb(25, 15, 0);"/>
	<polygon fill="#A5D9E9" points="820.251,588.49 803.348,598.25 803.348,578.846 820.251,569.091 &#9;" style="fill: rgb(25, 15, 0);"/>
	<polygon fill="#A5D9E9" points="847.727,572.622 830.824,582.383 830.824,562.984 847.727,553.229 &#9;" style="fill: rgb(25, 15, 0);"/>
	<polygon fill="#A5D9E9" points="875.203,556.766 858.295,566.526 858.295,547.122 875.203,537.367 &#9;" style="fill: rgb(25, 15, 0);"/>
	<polygon fill="#A5D9E9" points="902.679,540.898 885.771,550.658 885.771,531.255 902.679,521.504 &#9;" style="fill: rgb(25, 15, 0);"/>
	<polygon fill="#A5D9E9" points="930.155,525.036 913.247,534.797 913.247,515.398 930.155,505.637 &#9;" style="fill: rgb(25, 15, 0);"/>
	<polygon fill="#A5D9E9" points="765.305,656.505 748.396,666.266 748.396,646.862 765.305,637.112 &#9;" style="fill: rgb(25, 15, 0);"/>
	<polygon fill="#A5D9E9" points="792.775,640.643 775.872,650.404 775.872,631.005 792.775,621.244 &#9;" style="fill: rgb(25, 15, 0);"/>
	<polygon fill="#A5D9E9" points="820.251,624.781 803.348,634.541 803.348,615.138 820.251,605.382 &#9;" style="fill: rgb(25, 15, 0);"/>
	<polygon fill="#A5D9E9" points="847.727,608.913 830.824,618.674 830.824,599.275 847.727,589.52 &#9;" style="fill: rgb(25, 15, 0);"/>
	<polygon fill="#A5D9E9" points="875.203,593.057 858.295,602.817 858.295,583.413 875.203,573.658 &#9;" style="fill: rgb(25, 15, 0);"/>
	<polygon fill="#A5D9E9" points="902.679,577.19 885.771,586.95 885.771,567.546 902.679,557.796 &#9;" style="fill: rgb(25, 15, 0);"/>
	<polygon fill="#A5D9E9" points="930.155,561.327 913.247,571.088 913.247,551.689 930.155,541.928 &#9;" style="fill: rgb(25, 15, 0);"/>
	<polygon fill="#A5D9E9" points="765.305,692.797 748.396,702.557 748.396,683.153 765.305,673.403 &#9;" style="fill: rgb(25, 15, 0);"/>
	<polygon fill="#A5D9E9" points="792.775,676.934 775.872,686.695 775.872,667.296 792.775,657.535 &#9;" style="fill: rgb(25, 15, 0);"/>
	<polygon fill="#A5D9E9" points="820.251,661.072 803.348,670.833 803.348,651.429 820.251,641.674 &#9;" style="fill: rgb(25, 15, 0);"/>
	<polygon fill="#A5D9E9" points="847.727,645.205 830.824,654.965 830.824,635.566 847.727,625.812 &#9;" style="fill: rgb(25, 15, 0);"/>
	<polygon fill="#A5D9E9" points="875.203,629.348 858.295,639.109 858.295,619.704 875.203,609.949 &#9;" style="fill: rgb(25, 15, 0);"/>
	<polygon fill="#A5D9E9" points="902.679,613.481 885.771,623.241 885.771,603.837 902.679,594.087 &#9;" style="fill: rgb(25, 15, 0);"/>
	<polygon fill="#A5D9E9" points="930.155,597.618 913.247,607.379 913.247,587.98 930.155,578.22 &#9;" style="fill: rgb(25, 15, 0);"/>
	<polygon fill="#A5D9E9" points="765.305,729.088 748.396,738.849 748.396,719.444 765.305,709.694 &#9;" style="fill: rgb(25, 15, 0);"/>
	<polygon fill="#A5D9E9" points="792.775,713.226 775.872,722.986 775.872,703.587 792.775,693.827 &#9;" style="fill: rgb(25, 15, 0);"/>
	<polygon fill="#A5D9E9" points="820.251,697.364 803.348,707.124 803.348,687.72 820.251,677.965 &#9;" style="fill: rgb(25, 15, 0);"/>
	<polygon fill="#A5D9E9" points="847.727,681.496 830.824,691.257 830.824,671.858 847.727,662.103 &#9;" style="fill: rgb(25, 15, 0);"/>
	<polygon fill="#A5D9E9" points="875.203,665.639 858.295,675.4 858.295,655.995 875.203,646.24 &#9;" style="fill: rgb(25, 15, 0);"/>
	<polygon fill="#A5D9E9" points="902.679,649.772 885.771,659.532 885.771,640.128 902.679,630.378 &#9;" style="fill: rgb(25, 15, 0);"/>
	<polygon fill="#A5D9E9" points="930.155,633.91 913.247,643.67 913.247,624.272 930.155,614.511 &#9;" style="fill: rgb(25, 15, 0);"/>
	<polygon fill="#A5D9E9" points="765.305,765.379 748.396,775.14 748.396,755.735 765.305,745.986 &#9;" style="fill: rgb(25, 15, 0);"/>
	<polygon fill="#A5D9E9" points="792.775,749.517 775.872,759.277 775.872,739.878 792.775,730.118 &#9;" style="fill: rgb(25, 15, 0);"/>
	<polygon fill="#A5D9E9" points="820.251,733.655 803.348,743.415 803.348,724.011 820.251,714.256 &#9;" style="fill: rgb(25, 15, 0);"/>
	<polygon fill="#A5D9E9" points="847.727,717.787 830.824,727.548 830.824,708.149 847.727,698.394 &#9;" style="fill: rgb(25, 15, 0);"/>
	<polygon fill="#A5D9E9" points="875.203,701.93 858.295,711.691 858.295,692.287 875.203,682.531 &#9;" style="fill: rgb(25, 15, 0);"/>
	<polygon fill="#A5D9E9" points="902.679,686.063 885.771,695.824 885.771,676.419 902.679,666.669 &#9;" style="fill: rgb(25, 15, 0);"/>
	<polygon fill="#A5D9E9" points="930.155,670.201 913.247,679.962 913.247,660.563 930.155,650.802 &#9;" style="fill: rgb(25, 15, 0);"/>
	<polygon fill="#A5D9E9" points="765.305,801.67 748.396,811.431 748.396,792.027 765.305,782.277 &#9;" style="fill: rgb(25, 15, 0);"/>
	<polygon fill="#A5D9E9" points="792.775,785.808 775.872,795.568 775.872,776.17 792.775,766.409 &#9;" style="fill: rgb(25, 15, 0);"/>
	<polygon fill="#A5D9E9" points="820.251,769.946 803.348,779.706 803.348,760.302 820.251,750.547 &#9;" style="fill: rgb(25, 15, 0);"/>
	<polygon fill="#A5D9E9" points="847.727,754.079 830.824,763.839 830.824,744.44 847.727,734.685 &#9;" style="fill: rgb(25, 15, 0);"/>
	<polygon fill="#A5D9E9" points="875.203,738.222 858.295,747.982 858.295,728.578 875.203,718.818 &#9;" style="fill: rgb(25, 15, 0);"/>
	<polygon fill="#A5D9E9" points="902.679,722.354 885.771,732.115 885.771,712.71 902.679,702.961 &#9;" style="fill: rgb(25, 15, 0);"/>
	<polygon fill="#A5D9E9" points="930.155,706.492 913.247,716.253 913.247,696.854 930.155,687.093 &#9;" style="fill: rgb(25, 15, 0);"/>
	<polygon fill="#A5D9E9" points="765.305,837.961 748.396,847.722 748.396,828.318 765.305,818.568 &#9;" style="fill: rgb(25, 15, 0);"/>
	<polygon fill="#A5D9E9" points="792.775,822.099 775.872,831.86 775.872,812.461 792.775,802.701 &#9;" style="fill: rgb(25, 15, 0);"/>
	<polygon fill="#A5D9E9" points="820.251,806.237 803.348,815.998 803.348,796.594 820.251,786.839 &#9;" style="fill: rgb(25, 15, 0);"/>
	<polygon fill="#A5D9E9" points="847.727,790.37 830.824,800.13 830.824,780.731 847.727,770.976 &#9;" style="fill: rgb(25, 15, 0);"/>
	<polygon fill="#A5D9E9" points="875.203,774.513 858.295,784.274 858.295,764.869 875.203,755.114 &#9;" style="fill: rgb(25, 15, 0);"/>
	<polygon fill="#A5D9E9" points="902.679,758.646 885.771,768.406 885.771,749.002 902.679,739.252 &#9;" style="fill: rgb(25, 15, 0);"/>
	<polygon fill="#A5D9E9" points="930.155,742.783 913.247,752.544 913.247,733.145 930.155,723.384 &#9;" style="fill: rgb(25, 15, 0);"/>
	<polygon fill="#A5D9E9" points="765.305,874.253 748.396,884.013 748.396,864.609 765.305,854.859 &#9;" style="fill: rgb(25, 15, 0);"/>
	<polygon fill="#A5D9E9" points="792.775,858.391 775.872,868.151 775.872,848.752 792.775,838.992 &#9;" style="fill: rgb(25, 15, 0);"/>
	<polygon fill="#A5D9E9" points="820.251,842.529 803.348,852.289 803.348,832.885 820.251,823.13 &#9;" style="fill: rgb(25, 15, 0);"/>
	<polygon fill="#A5D9E9" points="847.727,826.661 830.824,836.421 830.824,817.022 847.727,807.267 &#9;" style="fill: rgb(25, 15, 0);"/>
	<polygon fill="#A5D9E9" points="875.203,810.804 858.295,820.565 858.295,801.161 875.203,791.405 &#9;" style="fill: rgb(25, 15, 0);"/>
	<polygon fill="#A5D9E9" points="902.679,794.937 885.771,804.697 885.771,785.293 902.679,775.543 &#9;" style="fill: rgb(25, 15, 0);"/>
	<polygon fill="#A5D9E9" points="930.155,779.074 913.247,788.835 913.247,769.436 930.155,759.675 &#9;" style="fill: rgb(25, 15, 0);"/>
	<polygon fill="#8D7964" points="731.339,907.315 722.816,912.232 722.816,328.769 731.339,323.846 &#9;" style="fill: rgb(255, 132, 0);"/>
	<polygon fill="#8D7964" points="700.279,924.277 691.756,929.194 691.756,345.731 700.279,340.813 &#9;" style="fill: rgb(255, 132, 0);"/>
	<polygon fill="#F3F3F4" points="703.184,376.531 687.157,365.91 700.821,357.998 716.842,368.618 &#9;"/>
	<polygon fill="#CCC7BE" points="703.184,408.133 703.184,376.584 716.842,368.672 716.842,400.22 &#9;"/>
	<polygon fill="#D8D1C7" points="687.157,397.411 687.157,365.867 703.359,376.584 703.359,408.133 &#9;"/>
	<polygon fill="#FFFFFF" points="687.157,395.404 687.157,372.697 703.359,383.413 703.359,406.121 &#9;"/>
	<polygon fill="#A5D9E9" points="703.184,406.121 703.184,383.01 716.842,375.097 716.842,398.208 &#9;" style="fill: rgb(25, 15, 0);"/>
	<polygon fill="#F3F3F4" points="734.648,478.671 718.626,468.055 732.284,460.143 748.311,470.764 &#9;"/>
	<polygon fill="#CCC7BE" points="734.648,510.273 734.648,478.724 748.311,470.812 748.311,502.361 &#9;"/>
	<polygon fill="#D8D1C7" points="718.626,499.557 718.626,468.008 734.828,478.724 734.828,510.273 &#9;"/>
	<polygon fill="#FFFFFF" points="718.626,497.544 718.626,474.837 734.828,485.553 734.828,508.266 &#9;"/>
	<polygon fill="#A5D9E9" points="734.648,508.261 734.648,485.15 748.311,477.237 748.311,500.353 &#9;" style="fill: rgb(25, 15, 0);"/>
	<polygon fill="#BFB8AC" points="480.774,449.395 254.174,318.563 719.226,50 945.826,180.832 &#9;"/>
	<polygon fill="#FDF7DD" points="690.614,176.584 704.474,184.592 717.824,176.881 703.964,168.873 712.046,164.21 748.125,185.038 &#10;&#9;&#9;740.043,189.711 724.946,180.992 711.595,188.702 726.693,197.422 718.546,202.116 682.468,181.289 &#9;"/>
	<path fill="#FDF7DD" d="M758.258,207.963c-23.541,13.59-61.962,13.526-85.646-0.154c-23.685-13.674-23.812-35.861-0.271-49.45&#10;&#9;&#9;c23.541-13.59,61.967-13.521,85.651,0.159C781.676,172.192,781.799,194.374,758.258,207.963 M676.807,160.94&#10;&#9;&#9;c-21.093,12.182-20.987,32.053,0.233,44.31c21.231,12.256,55.659,12.32,76.757,0.138c21.093-12.177,20.986-32.059-0.245-44.31&#10;&#9;&#9;C732.332,148.821,697.9,148.757,676.807,160.94"/>
	<path fill="#C6D660" d="M489.993,241.631c-9.862,5.693-25.899,5.666-35.814-0.069c-9.925-5.725-9.972-14.986-0.116-20.679&#10;&#9;&#9;c9.861-5.682,25.898-5.661,35.819,0.064C499.801,226.682,499.854,235.938,489.993,241.631" style="fill: rgb(219, 55, 0);"/>
	<path fill="#C6D660" d="M542.242,271.799c-9.856,5.693-25.893,5.661-35.814-0.064c-9.92-5.725-9.973-14.986-0.111-20.679&#10;&#9;&#9;c9.862-5.692,25.899-5.661,35.814,0.064C552.055,256.851,552.103,266.106,542.242,271.799" style="fill: rgb(219, 55, 0);"/>
	<path fill="#C6D660" d="M594.942,301.707c-9.856,5.698-25.893,5.672-35.814-0.064c-9.92-5.725-9.973-14.986-0.116-20.679&#10;&#9;&#9;c9.861-5.687,25.899-5.661,35.813,0.064C604.756,286.764,604.798,296.015,594.942,301.707" style="fill: rgb(219, 55, 0);"/>
	<path fill="#C6D660" d="M647.196,331.881c-9.856,5.693-25.894,5.661-35.814-0.064c-9.925-5.73-9.973-14.986-0.117-20.684&#10;&#9;&#9;c9.862-5.687,25.893-5.661,35.814,0.069C657.005,316.932,657.052,326.189,647.196,331.881" style="fill: rgb(219, 55, 0);"/>
	<path fill="#C6D660" d="M610.714,331.945c-9.92-5.73-9.973-14.986-0.117-20.684c9.856-5.692,25.893-5.661,35.819,0.069&#10;&#9;&#9;c9.92,5.73,9.973,14.986,0.111,20.679C636.665,337.701,620.634,337.669,610.714,331.945" style="fill: rgb(219, 55, 0);"/>
	<path fill="#C6D660" d="M558.788,361.922c-9.93-5.724-9.978-14.986-0.116-20.678c9.856-5.687,25.893-5.661,35.819,0.064&#10;&#9;&#9;c9.914,5.73,9.973,14.992,0.111,20.684C584.741,367.684,568.703,367.652,558.788,361.922" style="fill: rgb(219, 55, 0);"/>
	<path fill="#C6D660" d="M507.305,392.165c-9.92-5.73-9.973-14.992-0.111-20.684c9.861-5.693,25.893-5.661,35.813,0.069&#10;&#9;&#9;c9.92,5.725,9.973,14.986,0.112,20.679S517.219,397.889,507.305,392.165" style="fill: rgb(219, 55, 0);"/>
	<path fill="#C6D660" d="M455.374,422.142c-9.915-5.73-9.973-14.986-0.112-20.684c9.861-5.692,25.898-5.661,35.819,0.069&#10;&#9;&#9;c9.92,5.73,9.973,14.986,0.106,20.679C481.331,427.903,465.294,427.866,455.374,422.142" style="fill: rgb(219, 55, 0);"/>
	<path fill="#C6D660" d="M333.989,331.7c-9.862,5.693-25.893,5.666-35.813-0.064c-9.925-5.724-9.973-14.986-0.117-20.678&#10;&#9;&#9;c9.856-5.693,25.893-5.661,35.813,0.064C343.797,316.752,343.845,326.008,333.989,331.7" style="fill: rgb(219, 55, 0);"/>
	<path fill="#C6D660" d="M386.244,361.869c-9.862,5.692-25.899,5.661-35.814-0.069c-9.93-5.725-9.973-14.986-0.117-20.679&#10;&#9;&#9;c9.856-5.687,25.894-5.661,35.814,0.064C396.052,346.92,396.1,356.171,386.244,361.869" style="fill: rgb(219, 55, 0);"/>
	<path fill="#C6D660" d="M438.938,391.783c-9.861,5.692-25.899,5.661-35.813-0.069c-9.925-5.725-9.973-14.986-0.111-20.679&#10;&#9;&#9;c9.856-5.687,25.893-5.661,35.813,0.064C448.747,376.828,448.8,386.09,438.938,391.783" style="fill: rgb(219, 55, 0);"/>
	<polygon fill="#F5F4F5" points="506.354,279.165 452.915,247.876 422.296,230.187 391.862,247.759 338.333,278.671 &#10;&#9;&#9;368.953,296.344 422.487,265.448 476.35,296.546 &#9;"/>
	<polygon fill="#F9E8C3" points="476.27,296.529 422.556,265.517 422.556,284.751 476.27,315.764 &#9;"/>
	<polygon fill="#F0D69B" points="422.779,265.336 369.059,296.344 368.947,315.589 422.667,284.566 &#9;" style="fill: rgb(255, 198, 66);"/>
	<polygon fill="#F0D69B" points="476.27,315.769 506.354,298.399 506.354,279.165 476.27,296.535 &#9;" style="fill: rgb(255, 198, 66);"/>
	<polygon fill="#F9E8C3" points="338.327,297.911 368.947,315.584 368.947,296.349 338.327,278.676 &#9;"/>
	<polygon fill="#AFA69D" points="414.134,319.55 405.53,314.58 414.08,309.647 422.683,314.611 &#9;"/>
	<polygon fill="#AFA69D" points="445.858,336.066 437.255,331.095 445.799,326.167 454.403,331.132 &#9;"/>
	<polygon fill="#AFA69D" points="428.902,342.884 416.874,341.934 418.445,334.993 430.474,335.949 &#9;"/>
	<polygon fill="#AFA69D" points="402.122,328.302 390.396,326.475 393.498,319.709 405.223,321.547 &#9;"/>
	<polygon fill="#AFA69D" points="489.228,353.043 477.502,351.211 480.598,344.45 492.334,346.283 &#9;"/>
	<polygon fill="#AFA69D" points="437.446,363.849 440.457,357.073 452.209,358.858 449.193,365.634 &#9;"/>
	<polygon fill="#AFA69D" points="489,336.867 476.871,336.746 477.014,329.736 489.148,329.863 &#9;"/>
	<polygon fill="#AFA69D" points="460.536,356.213 451.933,351.243 460.483,346.309 469.085,351.274 &#9;"/>
	<polygon fill="#FFFFFF" points="414.134,315.828 405.53,310.863 414.08,305.924 422.683,310.895 &#9;"/>
	<polygon fill="#FFFFFF" points="445.858,332.349 437.255,327.378 445.799,322.45 454.403,327.41 &#9;"/>
	<polygon fill="#FFFFFF" points="428.902,339.167 416.874,338.211 418.445,331.276 430.474,332.226 &#9;"/>
	<polygon fill="#FFFFFF" points="402.122,324.584 390.396,322.752 393.498,315.993 405.223,317.825 &#9;"/>
	<polygon fill="#FFFFFF" points="489.228,349.326 477.502,347.493 480.598,340.734 492.334,342.566 &#9;"/>
	<polygon fill="#FFFFFF" points="437.446,360.132 440.457,353.356 452.209,355.141 449.193,361.917 &#9;"/>
	<polygon fill="#FFFFFF" points="489,333.145 476.871,333.023 477.014,326.018 489.148,326.146 &#9;"/>
	<polygon fill="#FFFFFF" points="460.536,352.491 451.933,347.52 460.483,342.587 469.085,347.557 &#9;"/>
</g>
</svg>