<?xml version="1.0" ?><svg id="Layer_1" style="enable-background:new 0 0 50 50;" version="1.1" viewBox="0 0 50 50" xml:space="preserve" xmlns="http://www.w3.org/2000/svg" xmlns:xlink="http://www.w3.org/1999/xlink"><style type="text/css">
	.st0{fill:#F0C4DB;}
	.st1{fill:#FF9D9C;}
	.st2{fill:#9BEAF9;}
	.st3{fill:#E9F4BC;}
	.st4{fill:#505050;}
	.st5{fill:#FEBECC;}
	.st6{fill:#FFFFFF;}
	.st7{fill:#FDE4A1;}
	.st8{fill:#FEE7B5;}
	.st9{fill:#CDF6FC;}
	.st10{fill:#F2C6DD;}
	.st11{opacity:0.1;}
</style><g><path class="st10" d="M39.59,43.22c0-9.61-7.64-17.65-17.25-17.75c-0.07,0-0.15,0-0.22,0c-11.6,0-21,9.4-21,21   c0,0.59,0.04,1.17,0.09,1.75h38.38V43.22z"/><g><rect class="st6" height="5.83" transform="matrix(0.7071 -0.7071 0.7071 0.7071 -2.2366 16.9431)" width="4.86" x="16.9" y="8.25"/><path class="st1" d="M23.6,37.35c-3.63,3.63-9.54,3.62-13.16,0c-3.63-3.63-3.63-9.53,0-13.16l9.23-9.23l-4.12-4.12l-9.23,9.23    c-5.91,5.91-5.91,15.5,0,21.41c2.96,2.96,6.83,4.43,10.7,4.43c3.88,0,7.75-1.48,10.7-4.43l9.23-9.23l-4.12-4.12L23.6,37.35z"/><rect class="st6" height="5.83" transform="matrix(0.7071 -0.7071 0.7071 0.7071 -9.3957 34.2266)" width="4.86" x="34.18" y="25.54"/><g><path class="st4" d="M24.66,21.39c2.31,0,4.18-1.88,4.18-4.18c0-1.48,1.2-2.69,2.68-2.69c0.41,0,0.75-0.34,0.75-0.75     s-0.34-0.75-0.75-0.75c-2.31,0-4.18,1.88-4.18,4.19c0,1.48-1.2,2.68-2.68,2.68c-0.41,0-0.75,0.34-0.75,0.75     S24.25,21.39,24.66,21.39z"/><path class="st4" d="M31.57,19.93c0-1.48,1.2-2.69,2.68-2.69c0.41,0,0.75-0.34,0.75-0.75s-0.34-0.75-0.75-0.75     c-2.31,0-4.18,1.88-4.18,4.19c0,1.48-1.2,2.68-2.68,2.68c-0.41,0-0.75,0.34-0.75,0.75s0.34,0.75,0.75,0.75     C29.7,24.12,31.57,22.24,31.57,19.93z"/><path class="st4" d="M37.05,24.15c-0.29-0.29-0.78-0.29-1.06,0l-3.43,3.42c0,0-0.01,0.01-0.02,0.01c0,0-0.01,0.01-0.01,0.02     l-3.15,3.14c-0.14,0.14-0.22,0.33-0.22,0.53c0,0.2,0.08,0.39,0.22,0.53c0.29,0.29,0.78,0.28,1.06,0c0.01,0,0.01-0.01,0.01-0.01     l2.62-2.61l3.06,3.06l-8.7,8.7c-2.72,2.72-6.33,4.22-10.17,4.22c-1.99,0-3.92-0.4-5.72-1.18c-0.37-0.16-0.83,0.02-0.99,0.39     c-0.08,0.18-0.08,0.39-0.01,0.57c0.08,0.19,0.22,0.33,0.4,0.41c2,0.87,4.13,1.31,6.32,1.31c4.24,0,8.23-1.65,11.23-4.66     l9.23-9.23c0,0,0,0,0,0s0,0,0,0l3.44-3.44c0.15-0.14,0.22-0.33,0.22-0.53s-0.07-0.39-0.22-0.53L37.05,24.15z M37.2,31.17     l-3.06-3.06l2.38-2.38l3.06,3.06L37.2,31.17z"/><path class="st4" d="M27.76,32.68c0,0.2,0.08,0.39,0.22,0.53c0.14,0.15,0.33,0.22,0.53,0.22s0.39-0.07,0.53-0.22     c0.29-0.29,0.29-0.76,0-1.06c-0.29-0.28-0.78-0.28-1.06,0C27.84,32.29,27.76,32.48,27.76,32.68z"/><path class="st4" d="M9.86,43.11c-0.34-0.21-0.83-0.08-1.03,0.26c-0.1,0.17-0.13,0.37-0.08,0.56c0.04,0.2,0.17,0.36,0.34,0.47     c0.12,0.07,0.25,0.1,0.38,0.1c0.27,0,0.51-0.14,0.65-0.36c0.1-0.17,0.13-0.37,0.08-0.57C10.15,43.38,10.03,43.21,9.86,43.11z"/><path class="st4" d="M8.3,42.03c-0.41-0.33-0.82-0.69-1.21-1.09c-2.71-2.71-4.21-6.33-4.21-10.17c0-3.85,1.5-7.46,4.21-10.18     l8.7-8.7l3.07,3.07l-8.7,8.7c-1.9,1.9-2.95,4.42-2.95,7.11c0,2.69,1.05,5.21,2.95,7.11c1.89,1.89,4.42,2.94,7.11,2.94     c2.68,0,5.21-1.05,7.1-2.94l3.26-3.25c0.29-0.29,0.29-0.77,0-1.06s-0.78-0.29-1.06,0l-3.25,3.25c-1.62,1.61-3.77,2.5-6.05,2.5     c-2.29,0-4.44-0.89-6.05-2.5c-1.62-1.62-2.51-3.76-2.51-6.05c0-2.29,0.89-4.44,2.51-6.05l12.67-12.67     c0.14-0.14,0.22-0.33,0.22-0.53c0-0.21-0.08-0.39-0.22-0.53l-4.13-4.13c-0.28-0.28-0.77-0.28-1.06,0L6.03,19.54     c-3,2.99-4.65,6.98-4.65,11.23C1.38,35.01,3.03,39,6.03,42c0.43,0.43,0.88,0.84,1.34,1.2c0.13,0.11,0.29,0.16,0.46,0.16     c0.23,0,0.45-0.1,0.59-0.28C8.67,42.76,8.62,42.29,8.3,42.03C8.31,42.03,8.31,42.03,8.3,42.03z M19.23,8.45l3.07,3.07l-2.38,2.38     l-3.07-3.07L19.23,8.45z"/><path class="st4" d="M48.65,18.6l-1.22-1.22c0.71-0.93,1.11-2.06,1.11-3.25c0-1.45-0.56-2.81-1.59-3.83     c-1.02-1.02-2.38-1.59-3.83-1.59c-1.45,0-2.81,0.56-3.83,1.59c-1.48,1.48-4.06,1.48-5.54,0c-0.74-0.74-1.15-1.72-1.15-2.77     s0.41-2.03,1.15-2.77c1.53-1.53,4.01-1.53,5.54,0c0.29,0.29,0.77,0.29,1.06,0s0.29-0.77,0-1.06c-1.02-1.02-2.38-1.59-3.83-1.59     c-1.19,0-2.31,0.4-3.25,1.11L32.06,2C31.77,1.71,31.29,1.71,31,2s-0.29,0.77,0,1.06l1.22,1.22c-0.71,0.93-1.11,2.06-1.11,3.25     c0,1.45,0.56,2.81,1.59,3.83c2.11,2.11,5.55,2.11,7.66,0c1.48-1.48,4.06-1.48,5.54,0c0.74,0.74,1.15,1.72,1.15,2.77     s-0.41,2.03-1.15,2.77c-1.48,1.48-4.06,1.48-5.54,0c-0.29-0.29-0.77-0.29-1.06,0c-0.29,0.29-0.29,0.77,0,1.06     c1.02,1.02,2.38,1.59,3.83,1.59c1.19,0,2.31-0.4,3.25-1.11l1.22,1.22c0.15,0.15,0.34,0.22,0.53,0.22s0.38-0.07,0.53-0.22     C48.95,19.36,48.95,18.89,48.65,18.6z"/></g></g></g></svg>